<?xml version="1.0" encoding="UTF-8"?>
<svg width="45px" height="45px" viewBox="0 0 45 45" version="1.1" xmlns="http://www.w3.org/2000/svg" xmlns:xlink="http://www.w3.org/1999/xlink">
    <!-- Generator: Sketch 48.2 (47327) - http://www.bohemiancoding.com/sketch -->
    <title>Apple Store</title>
    <desc>Created with Sketch.</desc>
    <defs></defs>
    <g id="Wallet-Lunes" stroke="none" stroke-width="1" fill="none" fill-rule="evenodd" transform="translate(-178.000000, -984.000000)">
        <g id="Apple-Store" transform="translate(162.000000, 973.000000)">
            
            <path d="M48.1592222,47.7045905 C46.4044667,50.2593143 44.5893333,52.7983238 41.7235,52.8515429 C38.9030556,52.9047619 37.9988667,51.1883429 34.7804778,51.1883429 C31.5587111,51.1883429 30.5508667,52.7983238 27.88789,52.9047619 C25.1212156,53.0078476 23.0174722,50.1455429 21.2482556,47.6023429 C17.6338011,42.402381 14.8751067,32.8994286 18.5852578,26.4862819 C20.4225156,23.3013733 23.7146667,21.2862571 27.2822122,21.233059 C29.9992333,21.1832762 32.5659222,23.0567333 34.2254667,23.0567333 C35.8875444,23.0567333 39.0029111,20.8074324 42.2780889,21.1373486 C43.6490444,21.1937314 47.4967556,21.6873276 49.9678111,25.2871562 C49.7725333,25.4149448 45.3750889,27.962 45.4287111,33.2684 C45.4825444,39.6071238 51.0079556,41.7140952 51.0721333,41.7428 C51.0221,41.8917714 50.1888444,44.7507238 48.1592222,47.7045905 Z M36.1265222,14.174139 C37.6433556,12.4045638 40.2062444,11.0883562 42.3213667,10.9999162 C42.5915889,13.4579448 41.5983111,15.9193676 40.1313,17.6930286 C38.6613333,19.4635048 36.2550889,20.8426743 33.8936,20.6585238 C33.5727111,18.2536933 34.7629556,15.7456514 36.1265222,14.174139 Z" id="logo" fill="#4CD566" fill-rule="nonzero"></path>
        </g>
    </g>
</svg>