<?xml version="1.0" encoding="UTF-8"?>
<svg width="26px" height="28px" viewBox="0 0 26 28" version="1.1" xmlns="http://www.w3.org/2000/svg" xmlns:xlink="http://www.w3.org/1999/xlink">
    <!-- Generator: Sketch 48.2 (47327) - http://www.bohemiancoding.com/sketch -->
    <title>mdpi/ic-email</title>
    <desc>Created with Sketch.</desc>
    <defs></defs>
    <g id="profile" stroke="none" stroke-width="1" fill="none" fill-rule="evenodd" transform="translate(-35.000000, -410.000000)">
        <g id="ic-email" transform="translate(35.000000, 410.000000)">
            <path d="M25.7484783,10.99 C25.9077553,11.128377 25.9997864,11.3322122 26,11.5470833 L26,25.3225 C25.9984426,26.7425862 24.8833755,27.8933927 23.5073913,27.895 L2.4926087,27.895 C1.11662455,27.8933927 0.00155742554,26.7425862 0,25.3225 L0,11.5470833 C0.000213597425,11.3322122 0.0922446682,11.128377 0.251521739,10.99 L2.91369565,8.68583333 C3.21180936,8.42568422 3.65782133,8.46420639 3.90989129,8.77187501 C4.16196125,9.07954364 4.12463543,9.53985087 3.82652174,9.8 L1.84826087,11.515 L4.90608696,13.74625 L4.90608696,6.74625 C4.90608696,5.71370764 5.71713287,4.87666667 6.7176087,4.87666667 L19.2908696,4.87666667 C20.2913454,4.87666667 21.1023913,5.71370764 21.1023913,6.74625 L21.1023913,13.74625 L24.1630435,11.5120833 L22.2017391,9.80291667 C21.9036254,9.54276754 21.8662996,9.0824603 22.1183696,8.77479167 C22.3704395,8.46712304 22.8164515,8.42860087 23.1145652,8.68875 L25.7484783,10.99 Z M6.31065217,14.7816667 L13,19.6641667 L19.6893478,14.7816667 L19.6893478,6.75791667 C19.6893478,6.53078956 19.510943,6.34666667 19.2908696,6.34666667 L6.70913043,6.34666667 C6.48905697,6.34666667 6.31065217,6.53078956 6.31065217,6.75791667 L6.31065217,14.7816667 Z M24.5869565,12.9908333 L16.6032609,18.8241667 L22.326087,23.3333333 C22.6382479,23.5749579 22.701512,24.0320006 22.4673913,24.3541666 C22.2332706,24.6763327 21.7904218,24.7416246 21.4782609,24.5 L15.3936957,19.7020833 L13.4154348,21.1604167 C13.1707668,21.3392698 12.8433637,21.3392698 12.5986957,21.1604167 L10.6204348,19.7020833 L4.53869565,24.5 C4.22653471,24.7416245 3.78368595,24.6763327 3.54956526,24.3541666 C3.31544456,24.0320005 3.37870865,23.5749579 3.69086957,23.3333333 L9.39673913,18.8183333 L1.41304348,12.9908333 L1.41304348,25.3225 C1.41459651,25.9371721 1.89702576,26.4350639 2.4926087,26.4366667 L23.5073913,26.4366667 C24.1029742,26.4350639 24.5854035,25.9371721 24.5869565,25.3225 L24.5869565,12.9908333 Z" id="Shape" fill="#FFFFFF" fill-rule="nonzero"></path>
            <path d="M9.71608696,2.74458333 C9.41797325,3.00473246 9.38064743,3.4650397 9.63271739,3.77270833 C9.88478735,4.08037696 10.3307993,4.11889913 10.628913,3.85875 L13,1.78791667 L15.3795652,3.86166667 C15.572411,4.02995365 15.8375996,4.07927776 16.0752372,3.99105906 C16.3128748,3.90284037 16.4868584,3.6904814 16.5316502,3.43397572 C16.5764421,3.17747004 16.4852371,2.91578698 16.2923913,2.7475 L13.4663043,0.274166667 C13.2007357,0.0399388393 12.8091713,0.0411784547 12.545,0.277083333 L9.71608696,2.74458333 Z" id="Path" fill="#4CD566"></path>
            <path d="M8.51217391,8.98333333 C8.51217391,8.5806257 8.82849447,8.25416667 9.21869565,8.25416667 L16.7813043,8.25416667 C17.1715055,8.25416667 17.4878261,8.5806257 17.4878261,8.98333333 C17.4878261,9.38604096 17.1715055,9.7125 16.7813043,9.7125 L9.21869565,9.7125 C8.82849447,9.7125 8.51217391,9.38604096 8.51217391,8.98333333 Z" id="Path" fill="#4CD566"></path>
            <path d="M9.21869565,12.6466667 L16.7813043,12.6466667 C17.1715055,12.6466667 17.4878261,12.3202076 17.4878261,11.9175 C17.4878261,11.5147924 17.1715055,11.1883333 16.7813043,11.1883333 L9.21869565,11.1883333 C8.82849447,11.1883333 8.51217391,11.5147924 8.51217391,11.9175 C8.51217391,12.3202076 8.82849447,12.6466667 9.21869565,12.6466667 Z" id="Path" fill="#4CD566"></path>
            <path d="M15.0997826,14.8545833 C15.0997826,14.4518757 14.7834621,14.1254167 14.3932609,14.1254167 L9.21869565,14.1254167 C8.82849447,14.1254167 8.51217391,14.4518757 8.51217391,14.8545833 C8.51217391,15.257291 8.82849447,15.58375 9.21869565,15.58375 L14.396087,15.58375 C14.7862881,15.58375 15.1026087,15.257291 15.1026087,14.8545833 L15.0997826,14.8545833 Z" id="Path" fill="#4CD566"></path>
        </g>
    </g>
</svg>