<?xml version="1.0" encoding="UTF-8"?>
<svg width="54px" height="66px" viewBox="0 0 54 66" version="1.1" xmlns="http://www.w3.org/2000/svg" xmlns:xlink="http://www.w3.org/1999/xlink">
    <!-- Generator: Sketch 48.2 (47327) - http://www.bohemiancoding.com/sketch -->
    <title>noun_255028_cc</title>
    <desc>Created with Sketch.</desc>
    <defs></defs>
    <g id="ico-site" stroke="none" stroke-width="1" fill="none" fill-rule="evenodd" transform="translate(-54.000000, -6124.000000)">
        <g id="contratos-inteligentes" transform="translate(3.000000, 6097.000000)" fill="#FFFFFF" fill-rule="nonzero">
            <g id="ic_Lunes-market" transform="translate(21.000000, 0.000000)">
                <g id="noun_255028_cc" transform="translate(30.000000, 27.000000)">
                    <g id="Group" transform="translate(0.360000, 0.000000)">
                        <path d="M52.7508,28.0273973 L51.15168,25.6651397 L52.47144,23.1292932 C52.67448,22.7358247 52.59024,22.2533918 52.26336,21.9539507 L50.15952,20.0227726 L50.85936,17.2525808 C50.96664,16.8229479 50.77512,16.3723397 50.3892,16.1568 L47.90232,14.7659178 L47.94696,11.9060384 C47.95488,11.462663 47.66328,11.0699178 47.23776,10.9491288 L44.50032,10.1723178 L43.88472,7.37898082 C43.78968,6.94573151 43.41744,6.63254795 42.97536,6.61301918 L40.13496,6.49078356 L38.89728,3.91443288 C38.70576,3.51445479 38.268,3.2909589 37.836,3.3792 L35.03808,3.92094247 L33.24096,1.7011726 C32.96376,1.3554411 32.48064,1.24477808 32.0868,1.42632329 L29.4912,2.60094247 L27.234,0.856372603 C26.88408,0.585139726 26.39736,0.585139726 26.04744,0.856372603 L23.79024,2.60094247 L21.19464,1.42632329 C20.7972,1.24550137 20.31624,1.3554411 20.03976,1.7011726 L18.24336,3.92094247 L15.44616,3.3792 C15.01488,3.2909589 14.57568,3.51517808 14.38488,3.91515616 L13.1508,6.49078356 L10.30176,6.61301918 C9.8604,6.63254795 9.48816,6.94573151 9.3924,7.38115068 L8.7804,10.1723178 L6.04008,10.9491288 C5.61456,11.0699178 5.32296,11.4619397 5.33088,11.9067616 L5.37912,14.7659178 L2.88792,16.1568 C2.502,16.3723397 2.30832,16.8229479 2.41776,17.2540274 L3.12192,20.0234959 L1.0188,21.9539507 C0.69336,22.2533918 0.60984,22.7358247 0.81288,23.1292932 L2.13264,25.6636932 L0.5292,28.0259507 C0.28008,28.3926575 0.30816,28.8816 0.5976,29.2179288 L2.46312,31.3798356 L1.44288,34.0487671 C1.2852,34.463211 1.42416,34.9340712 1.78344,35.1930082 L4.09392,36.8659726 L3.71736,39.7041534 C3.66048,40.1439123 3.90384,40.5677589 4.31208,40.7377315 L6.94584,41.8270027 L7.23312,44.6745863 C7.27704,45.1157918 7.61184,45.4730959 8.04672,45.5425315 L10.85976,45.9931397 L11.34792,47.4144 L7.686,61.1416767 C7.59024,61.5004274 7.70472,61.8801534 7.98264,62.1275178 C8.25768,62.3705425 8.65152,62.4399781 8.99208,62.3025534 L16.16472,59.3942137 L20.92824,65.5132274 C21.11472,65.7519123 21.39768,65.8900603 21.69432,65.8900603 C21.7584,65.8900603 21.8232,65.8821041 21.88872,65.8690849 C22.24944,65.7945863 22.53888,65.5226301 22.63608,65.1638795 L26.12952,52.0673096 L26.64,51.7613589 L27.14616,52.0644164 L30.63888,65.1631562 C30.7368,65.5219068 31.02552,65.793863 31.38696,65.8683616 C31.45104,65.8821041 31.51584,65.889337 31.58064,65.889337 C31.878,65.889337 32.16096,65.7519123 32.34672,65.5125041 L37.11384,59.3934904 L44.28648,62.3018301 C44.40528,62.3473973 44.5284,62.3698192 44.65224,62.3698192 C44.66592,62.3698192 44.68032,62.3698192 44.6904,62.3698192 C45.22824,62.3698192 45.66528,61.9344 45.66528,61.3919342 C45.66528,61.2089425 45.6156,61.0368 45.5256,60.888526 L41.93352,47.4165699 L42.42528,45.9916932 L45.23256,45.5410849 C45.66888,45.4716493 46.00296,45.1143452 46.04688,44.6731397 L46.33416,41.8255562 L48.9636,40.7362849 C49.37184,40.5670356 49.61592,40.1424658 49.55904,39.7027068 L49.1832,36.864526 L51.49296,35.1915616 C51.85224,34.9326247 51.99048,34.4624877 51.83352,34.0480438 L50.81904,31.378389 L52.68384,29.2164822 C52.9704,28.8830466 52.99992,28.3933808 52.7508,28.0273973 Z M21.26016,62.7647342 L17.2476,57.6084164 C17.05968,57.3653918 16.77384,57.2323068 16.48152,57.2323068 C16.35984,57.2323068 16.236,57.2547288 16.11648,57.3046356 L10.07352,59.7536877 L12.85128,49.3455781 L14.6124,49.2124932 L13.11768,54.8150795 C12.97872,55.3365699 13.28616,55.872526 13.806,56.0128438 C13.89168,56.0352658 13.9752,56.0468384 14.05872,56.0468384 C14.48856,56.0468384 14.88168,55.7589699 15.00048,55.3206575 L16.34472,50.2836822 L17.1468,51.5516055 C17.38512,51.9284384 17.84664,52.0947945 18.2628,51.9588164 L20.97648,51.0959342 L23.01696,53.0922082 C23.16168,53.2346959 23.34096,53.3034082 23.53032,53.3366795 C23.56776,53.3424658 23.60088,53.3482521 23.63832,53.3504219 C23.68224,53.3540384 23.71968,53.370674 23.76576,53.3670575 L21.26016,62.7647342 Z M37.1628,57.3053589 C36.75456,57.1426192 36.29808,57.2670247 36.0324,57.6091397 L32.01624,62.7654575 L29.50992,53.3685041 C29.5236,53.370674 29.53872,53.3627178 29.5524,53.3627178 C29.56392,53.3627178 29.57256,53.370674 29.5848,53.370674 C29.67912,53.370674 29.76984,53.3439123 29.85984,53.3171507 C29.87928,53.312811 29.89872,53.312811 29.91744,53.3048548 C30.0456,53.2592877 30.16296,53.1927452 30.26304,53.0936548 L32.30352,51.0973808 L35.01792,51.960263 C35.43336,52.0962411 35.8992,51.9269918 36.1332,51.5516055 L37.14696,49.9466301 L38.75544,55.9860822 C38.87424,56.4229479 39.26664,56.7100932 39.6972,56.7100932 C39.77928,56.7100932 39.86496,56.6992438 39.94776,56.6768219 C40.47048,56.5379507 40.77792,56.0005479 40.63824,55.4790575 L38.97504,49.2370849 L40.43016,49.3463014 L43.2072,59.754411 L37.1628,57.3053589 Z M48.78936,31.531726 L49.74624,34.0465973 L47.57112,35.6204712 C47.28096,35.8323945 47.1276,36.1868055 47.17368,36.5433863 L47.52864,39.2144877 L45.05328,40.2401096 C44.71992,40.3775342 44.49168,40.6871014 44.45568,41.0458521 L44.18424,43.7270795 L41.53824,44.1523726 C41.18544,44.2080658 40.89096,44.4554301 40.77288,44.7975452 L39.9924,47.0614356 L39.89664,47.3449644 L37.2204,47.1424438 C36.8748,47.1243616 36.5184,47.2878247 36.32616,47.5937753 L34.89048,49.8692384 L32.3352,49.0569863 C31.99248,48.9456 31.61808,49.0331178 31.36176,49.2869918 L29.4408,51.1646466 L27.13968,49.7824438 C26.9856,49.6876932 26.8128,49.6414027 26.64,49.6414027 C26.4672,49.6414027 26.2944,49.6876932 26.14032,49.7824438 L23.8392,51.1646466 L21.91824,49.2869918 C21.65976,49.0323945 21.2832,48.9448767 20.9448,49.0569863 L18.3888,49.8692384 L16.9488,47.5937753 C16.75728,47.2892712 16.42248,47.1200219 16.05528,47.1424438 L13.38336,47.3449644 L12.51072,44.7989918 C12.39264,44.4568767 12.09744,44.208789 11.74392,44.1523726 L9.09504,43.7270795 L8.82288,41.0458521 C8.7876,40.6871014 8.55864,40.3775342 8.226,40.2401096 L5.74848,39.2137644 L6.102,36.5433863 C6.14736,36.1868055 5.99544,35.8323945 5.70456,35.6204712 L3.52872,34.0465973 L4.48848,31.5324493 C4.61808,31.1953973 4.55184,30.8149479 4.31568,30.5408219 L2.55888,28.5054904 L4.06872,26.2813808 C4.27032,25.9833863 4.29336,25.5964274 4.12776,25.2774575 L2.8836,22.8898849 L4.86504,21.0715397 C5.12928,20.8277918 5.24016,20.4560219 5.15016,20.1073973 L4.48848,17.5006685 L6.83424,16.1907945 C7.14816,16.0150356 7.33968,15.6801534 7.33392,15.3199562 L7.28856,12.6264329 L9.86832,11.8944658 C10.21464,11.7975452 10.47672,11.5161863 10.55448,11.1639452 L11.1312,8.53479452 L13.81464,8.42051507 C14.17392,8.40460274 14.4936,8.19267945 14.64984,7.8672 L15.8112,5.44201644 L18.44496,5.95193425 C18.79488,6.02570959 19.15848,5.88900822 19.38456,5.60909589 L21.07728,3.51879452 L23.52096,4.62614795 C23.84784,4.77225205 24.23016,4.73030137 24.51312,4.50825205 L26.64,2.86494247 L28.76544,4.50825205 C29.05056,4.73030137 29.4336,4.77152877 29.75904,4.62614795 L32.202,3.51879452 L33.89544,5.60909589 C34.12152,5.88900822 34.48656,6.02570959 34.83432,5.95193425 L37.46808,5.44201644 L38.63448,7.86792329 C38.79072,8.19267945 39.11184,8.40460274 39.46896,8.42051507 L42.14376,8.53479452 L42.7248,11.1646685 C42.80184,11.5161863 43.06536,11.7975452 43.41096,11.8944658 L45.98784,12.6264329 L45.94608,15.3206795 C45.9396,15.6808767 46.13184,16.0150356 46.44504,16.1907945 L48.78792,17.5006685 L48.1284,20.1081205 C48.0384,20.4567452 48.14856,20.8277918 48.41496,21.0715397 L50.39784,22.8898849 L49.15512,25.2774575 C48.98952,25.5964274 49.01184,25.982663 49.21416,26.2806575 L50.71968,28.5054904 L48.96288,30.5408219 C48.72744,30.8149479 48.66048,31.194674 48.78936,31.531726 Z" id="Shape"></path>
                        <path d="M26.64,9.29496986 C23.89752,9.29496986 21.15576,9.94882192 18.70632,11.1870904 C18.22536,11.4301151 18.0324,12.0181479 18.27432,12.4998575 C18.51552,12.9851836 19.1016,13.1725151 19.5804,12.9345534 C21.75984,11.8344329 24.19992,11.2507397 26.63928,11.2507397 C35.29008,11.2507397 42.32736,18.3216 42.32736,27.0126247 C42.32736,35.7022027 35.29008,42.773063 26.63928,42.773063 C17.9892,42.773063 10.9512,35.7022027 10.9512,27.0126247 C10.9512,22.5412603 12.85128,18.2644603 16.16112,15.2794521 C16.56072,14.9185315 16.59528,14.3008438 16.23528,13.8986959 C15.87456,13.4958247 15.2604,13.4618301 14.8608,13.8241973 C11.13912,17.1795288 9.0036,21.9872219 9.0036,27.0126247 C9.0036,36.7813479 16.91424,44.7273863 26.63928,44.7273863 C36.36432,44.7273863 44.27424,36.7813479 44.27424,27.0126247 C44.27496,17.2424548 36.36504,9.29496986 26.64,9.29496986 Z" id="Shape"></path>
                        <path d="M28.15056,32.8452164 C27.70416,33.037611 27.20664,33.1352548 26.64,33.1374247 C26.1684,33.1374247 25.69608,33.0643726 25.21728,32.9153753 C24.74568,32.7707178 24.29712,32.5602411 23.8824,32.2846685 C23.45976,32.0098192 23.09832,31.6742137 22.79808,31.2879781 L21.71448,32.5812164 C21.93552,32.9934904 22.25448,33.3565808 22.66848,33.6784438 C23.08752,33.9952438 23.958,34.2606904 24.50232,34.463211 C25.04592,34.6686247 24.66936,34.8060493 26.61696,34.8754849 L26.61696,36.8406575 L28.56384,36.8406575 L28.56384,34.8335342 C28.56384,34.7149151 29.55312,34.468274 30.1464,34.1022904 C30.73968,33.7218411 30.96432,33.2480877 31.2912,32.6672877 C31.626,32.0864877 31.67568,31.4254027 31.68288,30.6883726 C31.67568,30.0272877 31.50432,29.4602301 31.2948,28.9864767 C31.08168,28.5127233 30.76704,28.1098521 30.4056,27.7771397 C30.04776,27.4429808 29.62152,27.154389 29.1816,26.917874 C28.72368,26.679189 28.2564,26.462926 27.7776,26.2727014 C27.2988,26.0810301 26.8308,25.8879123 26.37792,25.6947945 C25.92936,25.4987836 25.52256,25.2803507 25.16472,25.0438356 C24.804,24.8051507 24.51888,24.5129425 24.30144,24.1787836 C24.09624,23.8424548 23.98248,23.4366904 23.97456,22.957874 C23.97456,22.4862904 24.09624,22.0812493 24.32088,21.7405808 C24.5484,21.3970192 24.8796,21.1315726 25.30944,20.9435178 C25.74288,20.7583562 26.26776,20.6650521 26.88408,20.6607123 C27.5148,20.6607123 28.08864,20.7663123 28.61424,20.9760658 C29.13624,21.1901589 29.60712,21.5069589 30.02904,21.9351452 L31.05288,20.5066521 C30.64824,20.0734027 30.64176,19.7255014 30.06792,19.4535452 C29.48976,19.1917151 28.56456,19.0123397 28.56456,18.9226521 L28.56456,17.2793425 L26.61768,17.2793425 L26.61768,18.9472438 C24.6708,19.0694795 24.75,19.319737 24.17184,19.6907836 C23.598,20.0596603 22.95864,20.5254575 22.6512,21.0867288 C22.33872,21.6451068 22.08096,22.2693041 22.07736,22.9571507 C22.08096,23.5994301 22.14576,24.1534685 22.35528,24.6156493 C22.56768,25.08 22.82976,25.4821479 23.19192,25.8105205 C23.54904,26.1468493 23.94432,26.4311014 24.3936,26.6784658 C24.84216,26.9251068 25.29864,27.1428164 25.77816,27.3409973 C26.25768,27.5435178 26.72136,27.7445918 27.17352,27.9434959 C27.61848,28.1460164 28.02096,28.368789 28.38168,28.6176 C28.74312,28.8635178 29.02896,29.1586192 29.24568,29.4942247 C29.45088,29.8327233 29.56176,30.239211 29.56536,30.7093479 C29.56176,31.219989 29.43216,31.6510685 29.1816,32.0127123 C28.92528,32.3729096 28.58688,32.6520986 28.15056,32.8452164 Z" id="Shape"></path>
                    </g>
                </g>
            </g>
        </g>
    </g>
</svg>