<?xml version="1.0" encoding="UTF-8"?>
<svg width="34px" height="45px" viewBox="0 0 34 45" version="1.1" xmlns="http://www.w3.org/2000/svg" xmlns:xlink="http://www.w3.org/1999/xlink">
    <!-- Generator: Sketch 48.2 (47327) - http://www.bohemiancoding.com/sketch -->
    <title>ic_card_lunes</title>
    <desc>Created with Sketch.</desc>
    <defs></defs>
    <g id="ico-site" stroke="none" stroke-width="1" fill="none" fill-rule="evenodd" transform="translate(-65.000000, -2869.000000)">
        <g id="Cartão-pré-pago" transform="translate(-25.000000, 2836.000000)" fill="#FFFFFF" fill-rule="nonzero">
            <g id="ic_card_lunes" transform="translate(90.000000, 33.000000)">
                <path d="M17.78625,9.9140625 C18.0913873,9.9140625 18.33875,9.66851867 18.33875,9.365625 L18.33875,3.0796875 C18.33875,2.77679383 18.0913873,2.53125 17.78625,2.53125 C17.4811127,2.53125 17.23375,2.77679383 17.23375,3.0796875 L17.23375,9.365625 C17.23375,9.66851867 17.4811127,9.9140625 17.78625,9.9140625 Z" id="Shape"></path>
                <path d="M9.85291667,9.9140625 C10.158054,9.9140625 10.4054167,9.66851867 10.4054167,9.365625 L10.4054167,3.0796875 C10.4054167,2.77679383 10.158054,2.53125 9.85291667,2.53125 C9.54777934,2.53125 9.30041667,2.77679383 9.30041667,3.0796875 L9.30041667,9.365625 C9.30041667,9.66851867 9.54777934,9.9140625 9.85291667,9.9140625 Z" id="Shape"></path>
                <path d="M11.3333333,19.40625 C10.5861381,19.40625 9.98041667,20.0075176 9.98041667,20.7492188 L9.98041667,22.5703125 C9.98041667,22.8732062 10.2277793,23.11875 10.5329167,23.11875 L12.1408333,23.11875 C12.296908,23.1347264 12.4524649,23.0840779 12.5686854,22.9794436 C12.684906,22.8748094 12.7508277,22.726059 12.75,22.5703125 L12.75,20.7492188 C12.7483965,20.3824358 12.5965153,20.032089 12.3292937,19.7787688 C12.0620721,19.5254486 11.7025156,19.3909638 11.3333333,19.40625 Z M11.5883333,22.021875 L11.0854167,22.021875 L11.0854167,20.7492188 C11.1060927,20.6273614 11.212386,20.5381345 11.336875,20.5381345 C11.461364,20.5381345 11.5676573,20.6273614 11.5883333,20.7492187 L11.5883333,22.021875 Z" id="Shape"></path>
                <path d="M13.8195833,16.228125 C15.5087265,16.2243895 16.8814666,14.8742732 16.9008333,13.1976563 C16.9008288,11.5132411 15.5259141,10.1473935 13.8290223,10.1461027 C12.1321305,10.144812 10.7551087,11.5085664 10.7525036,13.1929795 C10.7498985,14.8773927 12.1226955,16.2453376 13.8195833,16.2492188 L13.8195833,16.228125 Z M13.8195833,11.2148438 C14.9055106,11.2187005 15.7848647,12.0915887 15.78875,13.1695313 C15.7937538,13.2491413 15.7937538,13.3289837 15.78875,13.4085938 C15.78875,13.4578125 15.78875,13.5140625 15.78875,13.5632813 C15.7731883,13.6274946 15.7542739,13.6908614 15.7320833,13.753125 C15.7320833,13.809375 15.7320833,13.8726563 15.6754167,13.9289063 C15.61875,13.9851563 15.5833333,14.0203125 15.5833333,14.0625 C15.5498639,14.1350112 15.5120174,14.2054517 15.47,14.2734375 L15.3991667,14.3578125 C15.3471384,14.4294639 15.2903452,14.4975843 15.2291667,14.5617187 L15.15125,14.625 C15.0846243,14.6884315 15.0136183,14.7471681 14.93875,14.8007812 L14.7829167,14.8851562 C14.2973665,15.1538743 13.7192868,15.203857 13.1942446,15.022518 C12.6692025,14.8411791 12.2472295,14.4457984 12.0345833,13.9359375 C11.7923024,13.3401458 11.8604502,12.6642112 12.2168703,12.1278962 C12.5732904,11.5915813 13.1724633,11.2633806 13.8195833,11.25 L13.8195833,11.2148438 Z" id="Shape"></path>
                <path d="M25.2875,14.878125 C24.0080165,12.4261411 22.6012654,10.0416876 21.0729167,7.734375 L21.0729167,0.5484375 C21.0731364,0.253593823 20.8384747,0.0113400638 20.5416667,-7.10542736e-15 L7.08333333,-7.10542736e-15 C6.77819601,-7.10542736e-15 6.53083333,0.245543833 6.53083333,0.5484375 L6.53083333,16.3828125 C1.23806478,20.7422282 -0.726747777,27.9313367 1.62079641,34.348286 C3.9683406,40.7652353 10.1225209,45.0276517 17,45 C17.5336111,45 18.0625,44.9742187 18.5866667,44.9226562 C19.6317592,44.8137153 20.6637003,44.604135 21.6679167,44.296875 C22.1731944,44.146875 22.6713889,43.9734375 23.1625,43.7765625 C28.9080651,41.4608331 32.8310398,36.1080999 33.2820385,29.9688799 C33.7330372,23.8296598 30.6338473,17.9686235 25.2875,14.85 L25.2875,14.878125 Z M24.3666667,15.5039062 C25.6345833,18.0351562 25.9320833,19.3289062 25.9604167,19.96875 C26.0808333,22.8234375 22.6454167,29.8125 21.165,32.625 C20.5933943,33.7276967 20.2947289,34.9497288 20.29375,36.1898438 L20.29375,37.74375 L12.6933333,37.74375 L12.6933333,36.3375 C12.694822,34.8415493 12.2619979,33.376862 11.4466667,32.11875 L10.455,30.5929688 C9.75601128,29.5127347 9.38472808,28.2557487 9.38541667,26.971875 L9.38541667,20.4890625 C9.39396203,19.9532136 9.6245621,19.444537 10.0229167,19.0828125 C10.4326133,18.7081906 10.9847141,18.5263638 11.53875,18.5835937 C12.5661774,18.7195586 13.3260363,19.6010568 13.3025,20.6296875 L13.3025,25.5515625 C13.3021324,25.7646443 13.4261332,25.9586501 13.6204995,26.0490894 C13.8148657,26.1395286 14.0444108,26.1100289 14.2091667,25.9734375 L20.8816667,20.390625 C21.9460582,19.4859345 22.108109,17.9113699 21.25,16.8117187 L21.0375,16.5375 L21.0375,9.75234375 C21.9583333,11.19375 23.3183333,13.4085937 24.3666667,15.5039062 Z M7.66416667,1.096875 L19.9679167,1.096875 L19.9679167,19.6875 L14.4145833,24.3351562 L14.4145833,20.6015625 C14.4140841,20.4033741 14.3951144,20.2056565 14.3579167,20.0109375 C14.1199153,18.6604586 13.016729,17.6254273 11.645,17.465625 L11.49625,17.465625 C10.6581823,17.4191143 9.83792662,17.7179751 9.22917831,18.2916344 C8.62043,18.8652937 8.27715584,19.6628954 8.28041667,20.4960937 L8.28041667,25.2421875 L7.66416667,25.2421875 L7.66416667,1.096875 Z M1.79916667,28.828125 C1.78842419,24.6755707 3.51180638,20.704279 6.55916667,17.859375 L6.55916667,25.7976562 C6.55916667,26.1005499 6.80652934,26.3460937 7.11166667,26.3460937 L8.28041667,26.3460937 L8.28041667,27.0140625 C8.27932848,28.5099563 8.71212013,29.9745337 9.52708333,31.2328125 L10.51875,32.7585937 C11.218106,33.8386614 11.5894215,35.095757 11.5883333,36.3796875 L11.5883333,37.7859375 L10.0583333,37.7859375 C9.91180122,37.7859375 9.77127069,37.8437191 9.66765684,37.9465711 C9.56404299,38.0494231 9.50583333,38.1889203 9.50583333,38.334375 L9.50583333,41.9484375 C4.72891394,39.28709 1.77941622,34.2656801 1.79916667,28.828125 Z M16.1429167,43.8820313 L15.8525,43.8820313 L15.2929167,43.8328125 L14.96,43.790625 L14.4570833,43.7203125 L14.11,43.59375 L13.6354167,43.4953125 L13.28125,43.4109375 L12.8208333,43.2914063 L12.4666667,43.1859375 L12.0416667,43.0664063 L11.6945833,42.9398438 L11.2554167,42.7710938 L10.9154167,42.6234375 L10.625,42.5039063 L10.625,38.8757813 L22.3975,38.8757813 L22.3975,42.890625 L21.7883333,43.1015625 C21.6041667,43.1648438 21.4129167,43.228125 21.22875,43.284375 C21.0445833,43.340625 20.6691667,43.425 20.3858333,43.4882813 C20.1025,43.5515625 20.0245833,43.5796875 19.8475,43.6148438 C19.5358333,43.6710938 19.2170833,43.7132813 18.8983333,43.7484375 L18.4308333,43.8117188 C17.95625,43.8539063 17.4816667,43.8820313 17.0141667,43.8820313 C16.7166667,43.8960938 16.42625,43.8960938 16.1429167,43.8820313 Z M23.5025,42.4757812 L23.5025,38.3273438 C23.5025,38.0244501 23.2551373,37.7789062 22.95,37.7789062 L21.3916667,37.7789062 L21.3916667,36.2179688 C21.3903858,35.1519145 21.6453618,34.1009418 22.1354167,33.1523438 C24.0266667,29.503125 27.1858333,22.921875 27.0583333,19.9195313 C27.0481946,19.7309541 27.026908,19.5431308 26.9945833,19.3570312 L26.9945833,19.1882812 C26.9615278,19.0195312 26.9190278,18.8414062 26.8670833,18.6539062 L26.8670833,18.5203125 C26.8033333,18.2882813 26.7183333,18.0421875 26.62625,17.8171875 L26.4916667,17.578125 C26.4113889,17.3671875 26.3240278,17.1445312 26.2295833,16.9101562 L26.2083333,16.7835937 C30.4470777,19.9656988 32.7028114,25.1149566 32.1567996,30.3624071 C31.6107879,35.6098576 28.3423984,40.192737 23.5379167,42.4476562 L23.5025,42.4757812 Z" id="Shape"></path>
            </g>
        </g>
    </g>
</svg>