<?xml version="1.0" encoding="UTF-8"?>
<svg width="60px" height="34px" viewBox="0 0 60 34" version="1.1" xmlns="http://www.w3.org/2000/svg" xmlns:xlink="http://www.w3.org/1999/xlink">
    <!-- Generator: Sketch 48.2 (47327) - http://www.bohemiancoding.com/sketch -->
    <title>Shape</title>
    <desc>Created with Sketch.</desc>
    <defs></defs>
    <g id="ico-site" stroke="none" stroke-width="1" fill="none" fill-rule="evenodd" transform="translate(-50.000000, -7393.000000)">
        <g id="Gateaway-de-pagamentos" transform="translate(-20.000000, 7353.000000)" fill="#FFFFFF" fill-rule="nonzero">
            <g id="ic_Lunes-market" transform="translate(44.000000, 0.000000)">
                <path d="M80.56,40 L69,40 C66.2385763,40 64,42.2385763 64,45 L64,62 L53.83,62 L54.83,61 C55.1461801,60.68382 55.2696625,60.2229775 55.1539325,59.7910675 C55.0382026,59.3591575 54.7008425,59.0217974 54.2689325,58.9060675 C53.8370225,58.7903375 53.37618,58.9138199 53.06,59.23 L49.93,62.38 C49.6948957,62.6145107 49.5627655,62.9329318 49.5627655,63.265 C49.5627655,63.5970682 49.6948957,63.9154893 49.93,64.15 L53.11,67.33 C53.4106559,67.6971807 53.8933083,67.8624383 54.3559241,67.7565975 C54.8185399,67.6507568 55.1813215,67.2920745 55.2924122,66.8306912 C55.4035029,66.369308 55.2437406,65.8848088 54.88,65.58 L53.88,64.58 L63.97,64.58 L63.97,68.2 C63.97,69.5260824 64.4967842,70.797852 65.4344661,71.7355339 C66.372148,72.6732158 67.6439176,73.2 68.97,73.2 L80.56,73.2 C83.3214237,73.2 85.56,70.9614237 85.56,68.2 L85.56,45.03 C85.5679878,43.6987273 85.044732,42.4192371 84.1061829,41.4750567 C83.1676339,40.5308764 81.8912967,39.999976 80.56,40 Z M66.47,66.87 L66.47,46.28 L83.09,46.28 L83.09,66.88 L66.47,66.87 Z M69,42.5 L80.56,42.5 C81.4778977,42.4904876 82.3283611,42.9808448 82.78,43.78 L66.78,43.78 C67.2316389,42.9808448 68.0821023,42.4904876 69,42.5 Z M80.56,70.66 L69,70.66 C68.0799985,70.6674922 67.2290327,70.1730121 66.78,69.37 L82.78,69.37 C82.3309673,70.1730121 81.4800015,70.6674922 80.56,70.66 Z M74.78,51.41 C71.9246878,51.41 69.61,53.7246878 69.61,56.58 C69.61,59.4353122 71.9246878,61.75 74.78,61.75 C77.6353122,61.75 79.95,59.4353122 79.95,56.58 C79.95,53.7246878 77.6353122,51.41 74.78,51.41 Z M74.78,59.24 C73.6991774,59.2399924 72.7249719,58.5883805 72.3122994,57.5894416 C71.8996269,56.5905028 72.1298996,55.4413078 72.8955891,54.6784861 C73.6612786,53.9156643 74.8113295,53.6897054 75.8087129,54.1061233 C76.8060962,54.5225412 77.454048,55.499185 77.45,56.58 C77.4444917,58.0506935 76.2507039,59.2400103 74.78,59.24 Z M36.78,51.41 C33.9246878,51.41 31.61,53.7246878 31.61,56.58 C31.61,59.4353122 33.9246878,61.75 36.78,61.75 C39.6353122,61.75 41.95,59.4353122 41.95,56.58 C41.95,55.2088307 41.4053051,53.893821 40.4357421,52.9242579 C39.466179,51.9546949 38.1511693,51.41 36.78,51.41 Z M36.78,59.24 C35.6991774,59.2399924 34.7249719,58.5883805 34.3122994,57.5894416 C33.8996269,56.5905028 34.1298996,55.4413078 34.8955891,54.6784861 C35.6612786,53.9156643 36.8113295,53.6897054 37.8087129,54.1061233 C38.8060962,54.5225412 39.454048,55.499185 39.45,56.58 C39.4444917,58.0506935 38.2507039,59.2400103 36.78,59.24 Z M57.73,51.14 L56.73,52.14 C56.4138199,52.45618 56.2903375,52.9170225 56.4060675,53.3489325 C56.5217974,53.7808425 56.8591575,54.1182026 57.2910675,54.2339325 C57.7229775,54.3496625 58.18382,54.2261801 58.5,53.91 L61.68,50.73 C61.9151043,50.4954893 62.0472345,50.1770682 62.0472345,49.845 C62.0472345,49.5129318 61.9151043,49.1945107 61.68,48.96 L58.5,45.78 C58.178461,45.4548883 57.7079016,45.3260117 57.2655771,45.4419168 C56.8232526,45.557822 56.4763626,45.9009 56.3555771,46.3419169 C56.2347916,46.7829337 56.358461,47.2548883 56.68,47.58 L57.68,48.58 L47.59,48.58 L47.59,45.03 C47.59,42.2685763 45.3514237,40.03 42.59,40.03 L31,40.03 C28.2385763,40.03 26,42.2685763 26,45.03 L26,68.13 C26,70.8914237 28.2385763,73.13 31,73.13 L42.56,73.13 C45.3214237,73.13 47.56,70.8914237 47.56,68.13 L47.56,51.13 L57.73,51.14 Z M28.47,66.87 L28.47,46.28 L45.09,46.28 L45.09,66.88 L28.47,66.87 Z M31,42.5 L42.56,42.5 C43.4778977,42.4904876 44.3283611,42.9808448 44.78,43.78 L28.78,43.78 C29.2316389,42.9808448 30.0821023,42.4904876 31,42.5 Z M42.56,70.66 L31,70.66 C30.0799985,70.6674922 29.2290327,70.1730121 28.78,69.37 L44.78,69.37 C44.3309673,70.1730121 43.4800015,70.6674922 42.56,70.66 Z" id="Shape"></path>
            </g>
        </g>
    </g>
</svg>