<?xml version="1.0" encoding="UTF-8"?>
<svg width="48px" height="48px" viewBox="0 0 48 48" version="1.1" xmlns="http://www.w3.org/2000/svg" xmlns:xlink="http://www.w3.org/1999/xlink">
    <!-- Generator: Sketch 48.2 (47327) - http://www.bohemiancoding.com/sketch -->
    <title>noun_1351826_cc</title>
    <desc>Created with Sketch.</desc>
    <defs></defs>
    <g id="ico-site" stroke="none" stroke-width="1" fill="none" fill-rule="evenodd" transform="translate(-59.000000, -8747.000000)">
        <g id="Leasing" transform="translate(-49.000000, 8715.000000)" fill="#FFFFFF" fill-rule="nonzero">
            <g id="ic_Lunes-market" transform="translate(73.000000, 0.000000)">
                <g id="noun_1351826_cc" transform="translate(35.000000, 32.000000)">
                    <path d="M4.3216,42.5472 L3.4344,43.4344 L4.5656,44.5656 L5.4528,43.6784 C6.388,44.3792 7.544,44.8 8.8,44.8 C10.056,44.8 11.212,44.3792 12.1472,43.6784 L13.0336,44.5648 L14.1648,43.4336 L13.2784,42.5472 C13.9792,41.612 14.4,40.456 14.4,39.2 C14.4,37.944 13.9792,36.788 13.2784,35.8528 L14.1656,34.9656 L13.0344,33.8344 L12.1472,34.7216 C11.212,34.0208 10.056,33.6 8.8,33.6 C7.544,33.6 6.388,34.0208 5.4528,34.7216 L4.5656,33.8344 L3.4344,34.9656 L4.3216,35.8528 C3.6208,36.788 3.2,37.944 3.2,39.2 C3.2,40.456 3.6208,41.612 4.3216,42.5472 Z M4.8,39.2 C4.8,38.3864 5.0472,37.6304 5.4664,36.9976 L6.6408,38.172 C6.4904,38.4848 6.4,38.8304 6.4,39.2 C6.4,39.5696 6.4904,39.9152 6.6408,40.228 L5.4664,41.4024 C5.0472,40.7696 4.8,40.0136 4.8,39.2 Z M8.4896,38.4624 C8.5856,38.4224 8.6896,38.4 8.8,38.4 C9.0208,38.4 9.2208,38.4896 9.3656,38.6344 C9.3656,38.6344 9.3656,38.6344 9.3656,38.6344 C9.44,38.7088 9.4976,38.796 9.5376,38.8904 C9.5776,38.9856 9.6,39.0904 9.6,39.2 C9.6,39.3096 9.5776,39.4144 9.5376,39.5096 C9.4976,39.604 9.4408,39.6912 9.3656,39.7656 C9.3656,39.7656 9.3656,39.7656 9.3656,39.7656 C9.2208,39.9104 9.0208,40 8.8,40 C8.6896,40 8.5856,39.9776 8.4896,39.9376 C8.4464,39.9192 8.412,39.8848 8.3728,39.8592 C8.1536,39.716 8,39.4808 8,39.2 C8,38.9192 8.1536,38.684 8.3728,38.5416 C8.412,38.5152 8.4464,38.4808 8.4896,38.4624 Z M8.8,43.2 C7.9864,43.2 7.2304,42.9528 6.5976,42.5336 L7.7648,41.3664 C7.7824,41.3752 7.8032,41.3776 7.8216,41.3864 C7.9144,41.428 8.0128,41.4576 8.1112,41.4872 C8.172,41.5056 8.2304,41.5304 8.2936,41.544 C8.4568,41.5792 8.6256,41.6 8.8,41.6 C9.1696,41.6 9.5152,41.5096 9.828,41.3592 L11.0024,42.5336 C10.3696,42.9528 9.6136,43.2 8.8,43.2 Z M12.8,39.2 C12.8,40.0136 12.5528,40.7696 12.1336,41.4024 L10.9664,40.2352 C10.9744,40.2176 10.9776,40.1984 10.9856,40.1808 C11.0288,40.0856 11.0584,39.9848 11.0888,39.8832 C11.1064,39.824 11.1304,39.768 11.1432,39.7072 C11.1792,39.5432 11.2,39.3744 11.2,39.2 C11.2,39.0256 11.1792,38.8568 11.144,38.6928 C11.1312,38.632 11.1072,38.576 11.0896,38.5168 C11.0592,38.4152 11.0288,38.3144 10.9856,38.2192 C10.9776,38.2016 10.9752,38.1824 10.9664,38.1648 L12.1336,36.9976 C12.5528,37.6304 12.8,38.3864 12.8,39.2 Z M8.8,35.2 C9.6136,35.2 10.3696,35.4472 11.0024,35.8664 L9.828,37.0408 C9.5152,36.8904 9.1696,36.8 8.8,36.8 C8.6256,36.8 8.4568,36.8208 8.2928,36.856 C8.2304,36.8696 8.172,36.8944 8.1112,36.9128 C8.012,36.9424 7.9136,36.972 7.8208,37.0136 C7.8024,37.0216 7.7824,37.0248 7.7648,37.0328 L6.5976,35.8656 C7.2304,35.4472 7.9864,35.2 8.8,35.2 Z" id="Shape"></path>
                    <path d="M47.7656,3.4344 L44.5656,0.2344 C44.2528,-0.0784 43.7472,-0.0784 43.4344,0.2344 L41.372,2.2968 C39.1272,0.8496 36.4632,-1.06596047e-15 33.6,-1.06596047e-15 C30.1512,-1.06596047e-15 26.8096,1.248 24.1896,3.5144 C23.896,3.7688 23.8272,4.1976 24.0272,4.5312 C24.2272,4.8648 24.6392,5.0048 25.0008,4.8656 C29.0968,3.2872 33.7328,3.9568 37.1768,6.4912 L34.6344,9.0344 L23.2,20.4688 L23.2,5.6032 C23.2,5.6024 23.2,5.6024 23.2,5.6016 L23.2,5.6 C23.2,5.5976 23.1992,5.596 23.1992,5.5936 C23.1984,5.5168 23.184,5.44 23.1608,5.3648 C23.1528,5.3392 23.1416,5.3168 23.1312,5.292 C23.1184,5.2616 23.1104,5.2304 23.0936,5.2016 C23.0832,5.1832 23.0672,5.1696 23.056,5.152 C23.0392,5.128 23.0224,5.1056 23.0032,5.0832 C22.968,5.0424 22.9288,5.0064 22.8872,4.9736 C22.8672,4.9576 22.848,4.9408 22.8264,4.9272 C22.7008,4.8472 22.5544,4.8 22.4,4.8 L6.4,4.8 C6.116,4.8 5.852,4.9512 5.7088,5.1968 L0.1088,14.7968 C0.0976,14.8168 0.0928,14.8384 0.0832,14.8592 C0.0728,14.8808 0.0648,14.9016 0.056,14.924 C0.0224,15.0128 0,15.1056 0,15.1992 C0,15.1992 0,15.2 0,15.2 L0,31.2 L0,47.2 C0,47.6416 0.3576,48 0.8,48 L16.8,48 C17.0944,48 17.3408,47.8336 17.48,47.5968 L17.4912,47.6032 L23.0912,38.0032 C23.1624,37.8808 23.2,37.7416 23.2,37.6 L23.2,29.1312 L38.9656,13.3656 L41.1088,11.2224 C41.956,12.9632 42.4,14.8712 42.4,16.8 C42.4,20.5088 40.7832,24.036 37.9632,26.4752 C37.6696,26.7296 37.6008,27.1584 37.8008,27.492 C37.9496,27.7392 38.2128,27.88 38.4864,27.88 C38.5824,27.88 38.68,27.8632 38.7744,27.8264 C44.3792,25.6648 48,20.3944 48,14.4 C48,11.5368 47.1504,8.8728 45.7032,6.628 L47.7656,4.5656 C48.0784,4.2528 48.0784,3.7472 47.7656,3.4344 Z M18.4608,25.296 C18.3808,25.4904 18.3808,25.7088 18.4608,25.9032 C18.5008,26.0008 18.5592,26.0896 18.6344,26.1656 L18.6904,26.2208 L18.7464,26.2768 L17.6,28.2408 L17.6,15.4168 L21.6,8.56 L21.6,21.384 L20.6408,23.028 L18.6344,25.0352 C18.5592,25.1096 18.5,25.1992 18.4608,25.296 Z M1.6,16 L16,16 L16,30.4 L1.6,30.4 L1.6,16 Z M6.8592,6.4 L21.0064,6.4 L16.34,14.4 L2.1928,14.4 L6.8592,6.4 Z M16,46.4 L1.6,46.4 L1.6,32 L16,32 L16,46.4 Z M17.6,44.24 L17.6,31.416 L19.9152,27.4472 L21.6,29.1312 L21.6,37.3832 L17.6,44.24 Z M22.4,27.6688 L20.3312,25.6 L35.2,10.7312 L37.2688,12.8 L22.4,27.6688 Z M42.052,24.0168 C43.3152,21.8456 44,19.3616 44,16.8 C44,14.2392 43.3056,11.7112 41.9912,9.4896 C41.8656,9.2768 41.648,9.1336 41.4032,9.1032 C41.3696,9.0992 41.3368,9.0968 41.3032,9.0968 C41.092,9.0968 40.888,9.18 40.7376,9.3312 L38.4,11.6688 L36.3312,9.6 L38.944,6.9872 C39.1024,6.8288 39.1872,6.612 39.1776,6.388 C39.168,6.164 39.0656,5.9552 38.8952,5.8104 C36.1792,3.5112 32.6896,2.2848 29.1408,2.4072 C30.5576,1.8776 32.0672,1.6 33.6,1.6 C36.4648,1.6 39.1032,2.5576 41.2384,4.1528 C41.4448,4.3072 41.6512,4.4608 41.8472,4.6264 C41.8952,4.6672 41.9392,4.712 41.9864,4.7528 C42.4304,5.1392 42.8464,5.5544 43.2328,5.9976 C43.28,6.0512 43.3304,6.1016 43.3768,6.156 C43.5408,6.3504 43.6928,6.5544 43.8448,6.7592 C45.4416,8.8944 46.4,11.5344 46.4,14.4 C46.4,18.1832 44.7776,21.6416 42.052,24.0168 Z M44.7568,5.312 C44.1384,4.5544 43.4456,3.8616 42.688,3.2432 L44,1.9312 L46.0688,4 L44.7568,5.312 Z" id="Shape"></path>
                    <path d="M13.2784,19.8528 L14.1656,18.9656 L13.0344,17.8344 L12.1472,18.7216 C11.212,18.0208 10.056,17.6 8.8,17.6 C7.544,17.6 6.388,18.0208 5.4528,18.7216 L4.5656,17.8344 L3.4344,18.9656 L4.3216,19.8528 C3.6208,20.788 3.2,21.944 3.2,23.2 C3.2,24.456 3.6208,25.612 4.3216,26.5472 L3.4344,27.4344 L4.5656,28.5656 L5.4528,27.6784 C6.388,28.3792 7.544,28.8 8.8,28.8 C10.056,28.8 11.212,28.3792 12.1472,27.6784 L13.0336,28.5648 L14.1648,27.4336 L13.2784,26.5472 C13.9792,25.612 14.4,24.456 14.4,23.2 C14.4,21.944 13.9792,20.788 13.2784,19.8528 Z M12.8,23.2 C12.8,24.0136 12.5528,24.7696 12.1336,25.4024 L10.9664,24.2352 C10.9744,24.2176 10.9776,24.1984 10.9856,24.1808 C11.0288,24.0856 11.0584,23.9848 11.0888,23.8832 C11.1064,23.824 11.1304,23.768 11.1432,23.7072 C11.1792,23.5432 11.2,23.3744 11.2,23.2 C11.2,23.0256 11.1792,22.8568 11.144,22.6928 C11.1312,22.632 11.1072,22.576 11.0896,22.5168 C11.0592,22.4152 11.0288,22.3144 10.9856,22.2192 C10.9776,22.2016 10.9752,22.1824 10.9664,22.1648 L12.1336,20.9976 C12.5528,21.6304 12.8,22.3864 12.8,23.2 Z M8.8,19.2 C9.6136,19.2 10.3696,19.4472 11.0024,19.8664 L9.828,21.0408 C9.5152,20.8904 9.1696,20.8 8.8,20.8 C8.6256,20.8 8.4568,20.8208 8.2928,20.856 C8.2304,20.8696 8.172,20.8944 8.1112,20.9128 C8.012,20.9424 7.9136,20.972 7.8208,21.0136 C7.8024,21.0216 7.7824,21.0248 7.7648,21.0328 L6.5976,19.8656 C7.2304,19.4472 7.9864,19.2 8.8,19.2 Z M9.5376,23.5096 C9.4976,23.604 9.4408,23.6912 9.3656,23.7656 C9.3656,23.7656 9.3656,23.7656 9.3656,23.7656 C9.2208,23.9104 9.0208,24 8.8,24 C8.6896,24 8.5856,23.9776 8.4896,23.9376 C8.4464,23.9192 8.412,23.8848 8.3728,23.8592 C8.1536,23.716 8,23.4808 8,23.2 C8,22.9192 8.1536,22.684 8.3728,22.5416 C8.412,22.516 8.4464,22.4816 8.4896,22.4632 C8.5856,22.4224 8.6896,22.4 8.8,22.4 C9.0208,22.4 9.2208,22.4896 9.3656,22.6344 C9.3656,22.6344 9.3656,22.6344 9.3656,22.6344 C9.44,22.7088 9.4976,22.796 9.5376,22.8904 C9.5776,22.9856 9.6,23.0904 9.6,23.2 C9.6,23.3096 9.5776,23.4144 9.5376,23.5096 Z M4.8,23.2 C4.8,22.3864 5.0472,21.6304 5.4664,20.9976 L6.6408,22.172 C6.4904,22.4848 6.4,22.8304 6.4,23.2 C6.4,23.5696 6.4904,23.9152 6.6408,24.228 L5.4664,25.4024 C5.0472,24.7696 4.8,24.0136 4.8,23.2 Z M8.8,27.2 C7.9864,27.2 7.2304,26.9528 6.5976,26.5336 L7.7648,25.3664 C7.7824,25.3752 7.8032,25.3776 7.8216,25.3864 C7.9144,25.428 8.0128,25.4576 8.1112,25.4872 C8.172,25.5056 8.2304,25.5304 8.2936,25.544 C8.4568,25.5792 8.6256,25.6 8.8,25.6 C9.1696,25.6 9.5152,25.5096 9.828,25.3592 L11.0024,26.5336 C10.3696,26.9528 9.6136,27.2 8.8,27.2 Z" id="Shape"></path>
                    <rect id="Rectangle-path" x="41.6" y="32" width="1.6" height="1.6"></rect>
                    <rect id="Rectangle-path" x="41.6" y="35.2" width="1.6" height="1.6"></rect>
                    <rect id="Rectangle-path" x="41.6" y="38.4" width="1.6" height="1.6"></rect>
                    <rect id="Rectangle-path" x="41.6" y="41.6" width="1.6" height="1.6"></rect>
                    <rect id="Rectangle-path" x="38.4" y="41.6" width="1.6" height="1.6"></rect>
                    <rect id="Rectangle-path" x="35.2" y="41.6" width="1.6" height="1.6"></rect>
                    <rect id="Rectangle-path" x="32" y="41.6" width="1.6" height="1.6"></rect>
                    <rect id="Rectangle-path" x="28.8" y="41.6" width="1.6" height="1.6"></rect>
                    <rect id="Rectangle-path" x="41.6" y="28.8" width="1.6" height="1.6"></rect>
                    <rect id="Rectangle-path" x="25.6" y="41.6" width="1.6" height="1.6"></rect>
                </g>
            </g>
        </g>
    </g>
</svg>