<?xml version="1.0" encoding="UTF-8"?>
<svg width="48px" height="34px" viewBox="0 0 48 34" version="1.1" xmlns="http://www.w3.org/2000/svg" xmlns:xlink="http://www.w3.org/1999/xlink">
    <!-- Generator: Sketch 48.2 (47327) - http://www.bohemiancoding.com/sketch -->
    <title>ic_private-label</title>
    <desc>Created with Sketch.</desc>
    <defs></defs>
    <g id="ico-site" stroke="none" stroke-width="1" fill="none" fill-rule="evenodd" transform="translate(-56.000000, -3634.000000)">
        <g id="Private-label" transform="translate(-77.000000, 3592.000000)" fill="#FFFFFF" fill-rule="nonzero">
            <g id="ic_Lunes-market" transform="translate(101.000000, 0.000000)">
                <g id="ic_private-label" transform="translate(32.000000, 42.000000)">
                    <path d="M0.279069767,4.25 L0.279069767,29.75 C0.279069767,32.0937333 2.15665116,34 4.46511628,34 L43.5348837,34 C45.8433488,34 47.7209302,32.0937333 47.7209302,29.75 L47.7209302,4.25 C47.7209302,1.90626667 45.8433488,0 43.5348837,0 L4.46511628,0 C2.15665116,0 0.279069767,1.90626667 0.279069767,4.25 Z M44.9302326,4.25 L44.9302326,29.75 C44.9302326,30.5308667 44.3045581,31.1666667 43.5348837,31.1666667 L4.46511628,31.1666667 C3.69544186,31.1666667 3.06976744,30.5308667 3.06976744,29.75 L3.06976744,4.25 C3.06976744,3.46913333 3.69544186,2.83333333 4.46511628,2.83333333 L43.5348837,2.83333333 C44.3045581,2.83333333 44.9302326,3.46913333 44.9302326,4.25 Z" id="Shape"></path>
                    <path d="M7.25581395,22.6666667 L11.4418605,22.6666667 C12.2126512,22.6666667 12.8372093,22.0325667 12.8372093,21.25 C12.8372093,20.4674333 12.2126512,19.8333333 11.4418605,19.8333333 L7.25581395,19.8333333 C6.48502326,19.8333333 5.86046512,20.4674333 5.86046512,21.25 C5.86046512,22.0325667 6.48502326,22.6666667 7.25581395,22.6666667 Z" id="Shape"></path>
                    <path d="M15.627907,21.25 C15.627907,22.0325667 16.2524651,22.6666667 17.0232558,22.6666667 L21.2093023,22.6666667 C21.980093,22.6666667 22.6046512,22.0325667 22.6046512,21.25 C22.6046512,20.4674333 21.980093,19.8333333 21.2093023,19.8333333 L17.0232558,19.8333333 C16.2524651,19.8333333 15.627907,20.4674333 15.627907,21.25 Z" id="Shape"></path>
                    <path d="M26.7906977,22.6666667 L30.9767442,22.6666667 C31.7475349,22.6666667 32.372093,22.0325667 32.372093,21.25 C32.372093,20.4674333 31.7475349,19.8333333 30.9767442,19.8333333 L26.7906977,19.8333333 C26.019907,19.8333333 25.3953488,20.4674333 25.3953488,21.25 C25.3953488,22.0325667 26.019907,22.6666667 26.7906977,22.6666667 Z" id="Shape"></path>
                    <path d="M36.5581395,22.6666667 L40.744186,22.6666667 C41.5149767,22.6666667 42.1395349,22.0325667 42.1395349,21.25 C42.1395349,20.4674333 41.5149767,19.8333333 40.744186,19.8333333 L36.5581395,19.8333333 C35.7873488,19.8333333 35.1627907,20.4674333 35.1627907,21.25 C35.1627907,22.0325667 35.7873488,22.6666667 36.5581395,22.6666667 Z" id="Shape"></path>
                    <path d="M7.25581395,17 L15.627907,17 C16.3986977,17 17.0232558,16.3659 17.0232558,15.5833333 L17.0232558,9.91666667 C17.0232558,9.1341 16.3986977,8.5 15.627907,8.5 L7.25581395,8.5 C6.48502326,8.5 5.86046512,9.1341 5.86046512,9.91666667 L5.86046512,15.5833333 C5.86046512,16.3659 6.48502326,17 7.25581395,17 Z M8.65116279,11.3333333 L14.2325581,11.3333333 L14.2325581,14.1666667 L8.65116279,14.1666667 L8.65116279,11.3333333 Z" id="Shape"></path>
                    <path d="M7.25581395,28.3333333 L17.0232558,28.3333333 C17.7940465,28.3333333 18.4186047,27.6992333 18.4186047,26.9166667 C18.4186047,26.1341 17.7940465,25.5 17.0232558,25.5 L7.25581395,25.5 C6.48502326,25.5 5.86046512,26.1341 5.86046512,26.9166667 C5.86046512,27.6992333 6.48502326,28.3333333 7.25581395,28.3333333 Z" id="Shape"></path>
                </g>
            </g>
        </g>
    </g>
</svg>