<?xml version="1.0" encoding="UTF-8"?>
<svg width="44px" height="43px" viewBox="0 0 44 43" version="1.1" xmlns="http://www.w3.org/2000/svg" xmlns:xlink="http://www.w3.org/1999/xlink">
    <!-- Generator: Sketch 48.2 (47327) - http://www.bohemiancoding.com/sketch -->
    <title>ic_boleto</title>
    <desc>Created with Sketch.</desc>
    <defs></defs>
    <g id="ico-site" stroke="none" stroke-width="1" fill="none" fill-rule="evenodd" transform="translate(-59.000000, -6717.000000)">
        <g id="maquininha-lunes" transform="translate(1.000000, 6683.000000)" fill="#FFFFFF" fill-rule="nonzero">
            <g id="ic_Lunes-market" transform="translate(23.000000, 0.000000)">
                <g id="ic_boleto" transform="translate(35.000000, 34.000000)">
                    <g id="Group">
                        <path d="M17.4603175,0 L2.0952381,0 C0.940063492,0 0,0.933516129 0,2.08064516 L0.0020952381,29.8801452 L0.593650794,36.9307581 C0.683746032,38.0009032 1.6007619,38.8387097 2.68190476,38.8387097 L16.8736508,38.8387097 C17.9547937,38.8387097 18.8718095,38.0009032 18.9619048,36.9307581 L19.5555556,29.8225806 L19.5555556,2.08064516 C19.5555556,0.933516129 18.6154921,0 17.4603175,0 Z M2.0952381,1.38709677 L17.4603175,1.38709677 C17.8451429,1.38709677 18.1587302,1.6985 18.1587302,2.08064516 L18.1587302,3.46774194 L1.3968254,3.46774194 L1.3968254,2.08064516 C1.3968254,1.6985 1.7104127,1.38709677 2.0952381,1.38709677 Z M18.1587302,4.85483871 L18.1594286,12.483871 L1.3968254,12.483871 L1.3968254,4.85483871 L18.1587302,4.85483871 Z M17.5692698,36.815629 C17.5392381,37.1721129 17.2340317,37.4516129 16.8736508,37.4516129 L2.68190476,37.4516129 C2.32152381,37.4516129 2.01561905,37.1721129 1.9855873,36.815629 L1.3968254,29.8225806 L1.3968254,13.8709677 L18.1594286,13.8709677 L18.1608254,29.7650161 L17.5692698,36.815629 Z" id="Shape"></path>
                        <rect id="Rectangle-path" x="2.79365079" y="15.2580645" width="2.79365079" height="1.38709677"></rect>
                        <rect id="Rectangle-path" x="8.38095238" y="15.2580645" width="2.79365079" height="1.38709677"></rect>
                        <rect id="Rectangle-path" x="13.968254" y="15.2580645" width="2.79365079" height="1.38709677"></rect>
                        <rect id="Rectangle-path" x="2.79365079" y="18.0322581" width="2.79365079" height="1.38709677"></rect>
                        <rect id="Rectangle-path" x="8.38095238" y="18.0322581" width="2.79365079" height="1.38709677"></rect>
                        <rect id="Rectangle-path" x="13.968254" y="18.0322581" width="2.79365079" height="1.38709677"></rect>
                        <rect id="Rectangle-path" x="2.79365079" y="20.8064516" width="2.79365079" height="1.38709677"></rect>
                        <rect id="Rectangle-path" x="8.38095238" y="20.8064516" width="2.79365079" height="1.38709677"></rect>
                        <rect id="Rectangle-path" x="13.968254" y="20.8064516" width="2.79365079" height="1.38709677"></rect>
                        <rect id="Rectangle-path" x="2.79365079" y="23.5806452" width="2.79365079" height="1.38709677"></rect>
                        <rect id="Rectangle-path" x="8.38095238" y="23.5806452" width="2.79365079" height="1.38709677"></rect>
                        <rect id="Rectangle-path" x="13.968254" y="23.5806452" width="2.79365079" height="1.38709677"></rect>
                        <path d="M39.8095238,14.5645161 L26.5396825,14.5645161 C24.6141587,14.5645161 23.047619,16.1201452 23.047619,18.0322581 L23.047619,39.5322581 C23.047619,41.444371 24.6141587,43 26.5396825,43 L39.8095238,43 C41.7350476,43 43.3015873,41.444371 43.3015873,39.5322581 L43.3015873,18.0322581 C43.3015873,16.1201452 41.7350476,14.5645161 39.8095238,14.5645161 Z M26.5396825,15.9516129 L39.8095238,15.9516129 C40.9646984,15.9516129 41.9047619,16.885129 41.9047619,18.0322581 L24.4444444,18.0322581 C24.4444444,16.885129 25.3845079,15.9516129 26.5396825,15.9516129 Z M41.9047619,19.4193548 L41.9047619,37.4516129 L24.4444444,37.4516129 L24.4444444,19.4193548 L41.9047619,19.4193548 Z M39.8095238,41.6129032 L26.5396825,41.6129032 C25.3845079,41.6129032 24.4444444,40.6793871 24.4444444,39.5322581 L24.4444444,38.8387097 L41.9047619,38.8387097 L41.9047619,39.5322581 C41.9047619,40.6793871 40.9646984,41.6129032 39.8095238,41.6129032 Z" id="Shape"></path>
                        <rect id="Rectangle-path" x="30.7301587" y="39.5322581" width="4.88888889" height="1.38709677"></rect>
                        <path d="M28.0747937,26.3548387 L29.2900317,31.7860161 C28.8884444,32.1653871 28.6349206,32.6980323 28.6349206,33.2903226 C28.6349206,34.4374516 29.5749841,35.3709677 30.7301587,35.3709677 C31.6394921,35.3709677 32.407746,34.7890806 32.6968889,33.983871 L35.748254,33.983871 C36.0373968,34.7890806 36.8056508,35.3709677 37.7149841,35.3709677 C38.8701587,35.3709677 39.8102222,34.4374516 39.8102222,33.2903226 C39.8102222,32.5267258 39.3897778,31.8657742 38.7709841,31.5037419 L40.5079365,28.6275968 L40.5079365,27.0483871 L30.7301587,27.0483871 L30.7301587,28.4354839 L38.9951746,28.4354839 L37.2931429,31.2519839 C36.5709841,31.3990161 35.9906032,31.9191774 35.7475556,32.5967742 L32.6961905,32.5967742 C32.4070476,31.7915645 31.6387937,31.2096774 30.7294603,31.2096774 C30.6833651,31.2096774 30.6400635,31.2200806 30.5939683,31.2235484 L29.1950476,24.9677419 L25.8412698,24.9677419 L25.8412698,26.3548387 L28.0747937,26.3548387 Z M37.7142857,32.5967742 C38.0991111,32.5967742 38.4126984,32.9081774 38.4126984,33.2903226 C38.4126984,33.6724677 38.0991111,33.983871 37.7142857,33.983871 C37.3294603,33.983871 37.015873,33.6724677 37.015873,33.2903226 C37.015873,32.9081774 37.3294603,32.5967742 37.7142857,32.5967742 Z M31.4285714,33.2903226 C31.4285714,33.6724677 31.1149841,33.983871 30.7301587,33.983871 C30.3453333,33.983871 30.031746,33.6724677 30.031746,33.2903226 C30.031746,32.9081774 30.3453333,32.5967742 30.7301587,32.5967742 C31.1149841,32.5967742 31.4285714,32.9081774 31.4285714,33.2903226 Z" id="Shape"></path>
                        <path d="M31.4285714,10.4032258 C31.4285714,11.5503548 32.3686349,12.483871 33.5238095,12.483871 C34.6789841,12.483871 35.6190476,11.5503548 35.6190476,10.4032258 C35.6190476,9.25609677 34.6789841,8.32258065 33.5238095,8.32258065 C32.3686349,8.32258065 31.4285714,9.25609677 31.4285714,10.4032258 Z M34.2222222,10.4032258 C34.2222222,10.785371 33.9086349,11.0967742 33.5238095,11.0967742 C33.1389841,11.0967742 32.8253968,10.785371 32.8253968,10.4032258 C32.8253968,10.0210806 33.1389841,9.70967742 33.5238095,9.70967742 C33.9086349,9.70967742 34.2222222,10.0210806 34.2222222,10.4032258 Z" id="Shape"></path>
                        <path d="M37.015873,10.4032258 L38.4126984,10.4032258 C38.4126984,7.72612903 36.2196825,5.5483871 33.5238095,5.5483871 C30.8279365,5.5483871 28.6349206,7.72612903 28.6349206,10.4032258 L30.031746,10.4032258 C30.031746,8.4911129 31.5982857,6.93548387 33.5238095,6.93548387 C35.4493333,6.93548387 37.015873,8.4911129 37.015873,10.4032258 Z" id="Shape"></path>
                        <path d="M41.2063492,10.4032258 C41.2063492,6.19685484 37.7596825,2.77419355 33.5238095,2.77419355 C29.2879365,2.77419355 25.8412698,6.19685484 25.8412698,10.4032258 L27.2380952,10.4032258 C27.2380952,6.96183871 30.0582857,4.16129032 33.5238095,4.16129032 C36.9893333,4.16129032 39.8095238,6.96183871 39.8095238,10.4032258 L41.2063492,10.4032258 Z" id="Shape"></path>
                        <path d="M33.5238095,1.38709677 C38.5300317,1.38709677 42.6031746,5.43187097 42.6031746,10.4032258 L44,10.4032258 C44,4.6668871 39.300381,0 33.5238095,0 C27.7472381,0 23.047619,4.6668871 23.047619,10.4032258 L24.4444444,10.4032258 C24.4444444,5.43187097 28.5175873,1.38709677 33.5238095,1.38709677 Z" id="Shape"></path>
                    </g>
                </g>
            </g>
        </g>
    </g>
</svg>