<?xml version="1.0" encoding="UTF-8"?>
<svg width="50px" height="50px" viewBox="0 0 50 50" version="1.1" xmlns="http://www.w3.org/2000/svg" xmlns:xlink="http://www.w3.org/1999/xlink">
    <!-- Generator: Sketch 48.2 (47327) - http://www.bohemiancoding.com/sketch -->
    <title>noun_1017448_cc</title>
    <desc>Created with Sketch.</desc>
    <defs></defs>
    <g id="ico-site" stroke="none" stroke-width="1" fill="none" fill-rule="evenodd" transform="translate(-56.000000, -8007.000000)">
        <g id="LPoS" transform="translate(0.000000, 7978.000000)" fill="#FFFFFF" fill-rule="nonzero">
            <g id="ic_Lunes-market" transform="translate(24.000000, 0.000000)">
                <g id="noun_1017448_cc" transform="translate(32.000000, 29.000000)">
                    <g id="Group">
                        <path d="M37.0967742,19.4870968 L41.5991935,15.8290323 C41.941129,16.0137097 42.3266129,16.1290323 42.7419355,16.1290323 L47.5806452,16.1290323 C48.9145161,16.1290323 50,15.0435484 50,13.7096774 L50,8.87096774 C50,7.53709677 48.9145161,6.4516129 47.5806452,6.4516129 L42.7419355,6.4516129 C41.4080645,6.4516129 40.3225806,7.53709677 40.3225806,8.87096774 L40.3225806,13.7096774 C40.3225806,14.0379032 40.3895161,14.3508065 40.508871,14.6362903 L37.0967742,17.4080645 L37.0967742,16.9354839 C37.0967742,15.6016129 36.0112903,14.516129 34.6774194,14.516129 L25.8064516,14.516129 L25.8064516,9.67741935 L27.4193548,9.67741935 C28.7532258,9.67741935 29.8387097,8.59193548 29.8387097,7.25806452 L29.8387097,2.41935484 C29.8387097,1.08548387 28.7532258,0 27.4193548,0 L22.5806452,0 C21.2467742,0 20.1612903,1.08548387 20.1612903,2.41935484 L20.1612903,7.25806452 C20.1612903,8.59193548 21.2467742,9.67741935 22.5806452,9.67741935 L24.1935484,9.67741935 L24.1935484,14.516129 L15.3225806,14.516129 C13.9887097,14.516129 12.9032258,15.6016129 12.9032258,16.9354839 L12.9032258,17.4080645 L9.49112903,14.6362903 C9.61048387,14.3508065 9.67741935,14.0379032 9.67741935,13.7096774 L9.67741935,8.87096774 C9.67741935,7.53709677 8.59193548,6.4516129 7.25806452,6.4516129 L2.41935484,6.4516129 C1.08548387,6.4516129 0,7.53709677 0,8.87096774 L0,13.7096774 C0,15.0435484 1.08548387,16.1290323 2.41935484,16.1290323 L7.25806452,16.1290323 C7.6733871,16.1290323 8.05887097,16.0137097 8.40080645,15.8290323 L12.9032258,19.4870968 L12.9032258,27.4193548 L9.67741935,27.4193548 L9.67741935,25.8064516 C9.67741935,24.4725806 8.59193548,23.3870968 7.25806452,23.3870968 L2.41935484,23.3870968 C1.08548387,23.3870968 0,24.4725806 0,25.8064516 L0,30.6451613 C0,31.9790323 1.08548387,33.0645161 2.41935484,33.0645161 L7.25806452,33.0645161 C8.59193548,33.0645161 9.67741935,31.9790323 9.67741935,30.6451613 L9.67741935,29.0322581 L12.9032258,29.0322581 L12.9032258,47.5806452 C12.9032258,48.9145161 13.9887097,50 15.3225806,50 L34.6774194,50 C36.0112903,50 37.0967742,48.9145161 37.0967742,47.5806452 L37.0967742,29.0322581 L40.3225806,29.0322581 L40.3225806,30.6451613 C40.3225806,31.9790323 41.4080645,33.0645161 42.7419355,33.0645161 L47.5806452,33.0645161 C48.9145161,33.0645161 50,31.9790323 50,30.6451613 L50,25.8064516 C50,24.4725806 48.9145161,23.3870968 47.5806452,23.3870968 L42.7419355,23.3870968 C41.4080645,23.3870968 40.3225806,24.4725806 40.3225806,25.8064516 L40.3225806,27.4193548 L37.0967742,27.4193548 L37.0967742,19.4870968 Z M41.9354839,8.87096774 C41.9354839,8.42580645 42.2975806,8.06451613 42.7419355,8.06451613 L47.5806452,8.06451613 C48.025,8.06451613 48.3870968,8.42580645 48.3870968,8.87096774 L48.3870968,13.7096774 C48.3870968,14.1548387 48.025,14.516129 47.5806452,14.516129 L42.7419355,14.516129 C42.2975806,14.516129 41.9354839,14.1548387 41.9354839,13.7096774 L41.9354839,8.87096774 Z M21.7741935,7.25806452 L21.7741935,2.41935484 C21.7741935,1.97419355 22.1362903,1.61290323 22.5806452,1.61290323 L27.4193548,1.61290323 C27.8637097,1.61290323 28.2258065,1.97419355 28.2258065,2.41935484 L28.2258065,7.25806452 C28.2258065,7.70322581 27.8637097,8.06451613 27.4193548,8.06451613 L22.5806452,8.06451613 C22.1362903,8.06451613 21.7741935,7.70322581 21.7741935,7.25806452 Z M2.41935484,14.516129 C1.975,14.516129 1.61290323,14.1548387 1.61290323,13.7096774 L1.61290323,8.87096774 C1.61290323,8.42580645 1.975,8.06451613 2.41935484,8.06451613 L7.25806452,8.06451613 C7.70241935,8.06451613 8.06451613,8.42580645 8.06451613,8.87096774 L8.06451613,13.7096774 C8.06451613,14.1548387 7.70241935,14.516129 7.25806452,14.516129 L2.41935484,14.516129 Z M8.06451613,30.6451613 C8.06451613,31.0903226 7.70241935,31.4516129 7.25806452,31.4516129 L2.41935484,31.4516129 C1.975,31.4516129 1.61290323,31.0903226 1.61290323,30.6451613 L1.61290323,25.8064516 C1.61290323,25.3612903 1.975,25 2.41935484,25 L7.25806452,25 C7.70241935,25 8.06451613,25.3612903 8.06451613,25.8064516 L8.06451613,30.6451613 Z M41.9354839,25.8064516 C41.9354839,25.3612903 42.2975806,25 42.7419355,25 L47.5806452,25 C48.025,25 48.3870968,25.3612903 48.3870968,25.8064516 L48.3870968,30.6451613 C48.3870968,31.0903226 48.025,31.4516129 47.5806452,31.4516129 L42.7419355,31.4516129 C42.2975806,31.4516129 41.9354839,31.0903226 41.9354839,30.6451613 L41.9354839,25.8064516 Z M31.3959677,27.4193548 C31.2790323,26.4879032 30.9620968,25.6193548 30.4903226,24.8548387 L35.483871,20.7975806 L35.483871,27.4193548 L31.3959677,27.4193548 Z M29.4822581,23.5951613 C28.5032258,22.6467742 27.2266129,22.0080645 25.8064516,21.8298387 L25.8064516,20.1612903 L33.708871,20.1612903 L29.4822581,23.5951613 Z M24.1935484,21.8298387 C22.7733871,22.0080645 21.4967742,22.6467742 20.5177419,23.5951613 L16.291129,20.1612903 L24.1935484,20.1612903 L24.1935484,21.8298387 Z M25,23.3870968 C27.6685484,23.3870968 29.8387097,25.5572581 29.8387097,28.2258065 C29.8387097,30.8943548 27.6685484,33.0645161 25,33.0645161 C22.3314516,33.0645161 20.1612903,30.8943548 20.1612903,28.2258065 C20.1612903,25.5572581 22.3314516,23.3870968 25,23.3870968 Z M34.6774194,16.1290323 C35.1217742,16.1290323 35.483871,16.4903226 35.483871,16.9354839 L35.483871,18.5483871 L25.8064516,18.5483871 L25.8064516,16.1290323 L34.6774194,16.1290323 Z M15.3225806,16.1290323 L24.1935484,16.1290323 L24.1935484,18.5483871 L14.516129,18.5483871 L14.516129,16.9354839 C14.516129,16.4903226 14.8782258,16.1290323 15.3225806,16.1290323 Z M14.516129,20.7975806 L19.5096774,24.8548387 C19.0379032,25.6201613 18.7209677,26.4879032 18.6040323,27.4193548 L14.516129,27.4193548 L14.516129,20.7975806 Z M34.6774194,48.3870968 L15.3225806,48.3870968 C14.8782258,48.3870968 14.516129,48.0258065 14.516129,47.5806452 L14.516129,43.5483871 L35.483871,43.5483871 L35.483871,47.5806452 C35.483871,48.0258065 35.1217742,48.3870968 34.6774194,48.3870968 Z M35.483871,41.9354839 L14.516129,41.9354839 L14.516129,29.0322581 L18.6040323,29.0322581 C19.0032258,32.2096774 21.716129,34.6774194 25,34.6774194 C28.283871,34.6774194 30.9967742,32.2096774 31.3959677,29.0322581 L35.483871,29.0322581 L35.483871,41.9354839 Z" id="Shape"></path>
                        <rect id="Rectangle-path" x="20.9677419" y="45.1612903" width="8.06451613" height="1.61290323"></rect>
                        <rect id="Rectangle-path" x="24.1935484" y="4.03225806" width="1.61290323" height="1.61290323"></rect>
                        <rect id="Rectangle-path" x="4.03225806" y="10.483871" width="1.61290323" height="1.61290323"></rect>
                        <rect id="Rectangle-path" x="44.3548387" y="10.483871" width="1.61290323" height="1.61290323"></rect>
                        <rect id="Rectangle-path" x="44.3548387" y="27.4193548" width="1.61290323" height="1.61290323"></rect>
                        <rect id="Rectangle-path" x="4.03225806" y="27.4193548" width="1.61290323" height="1.61290323"></rect>
                        <path d="M29.0322581,35.483871 L20.9677419,35.483871 C19.633871,35.483871 18.5483871,36.5693548 18.5483871,37.9032258 C18.5483871,39.2370968 19.633871,40.3225806 20.9677419,40.3225806 L29.0322581,40.3225806 C30.366129,40.3225806 31.4516129,39.2370968 31.4516129,37.9032258 C31.4516129,36.5693548 30.366129,35.483871 29.0322581,35.483871 Z M29.0322581,38.7096774 L20.9677419,38.7096774 C20.5233871,38.7096774 20.1612903,38.3483871 20.1612903,37.9032258 C20.1612903,37.4580645 20.5233871,37.0967742 20.9677419,37.0967742 L29.0322581,37.0967742 C29.4766129,37.0967742 29.8387097,37.4580645 29.8387097,37.9032258 C29.8387097,38.3483871 29.4766129,38.7096774 29.0322581,38.7096774 Z" id="Shape"></path>
                    </g>
                </g>
            </g>
        </g>
    </g>
</svg>