<?xml version="1.0" encoding="UTF-8"?>
<svg width="46px" height="44px" viewBox="0 0 46 44" version="1.1" xmlns="http://www.w3.org/2000/svg" xmlns:xlink="http://www.w3.org/1999/xlink">
    <!-- Generator: Sketch 48.2 (47327) - http://www.bohemiancoding.com/sketch -->
    <title>Group 3</title>
    <desc>Created with Sketch.</desc>
    <defs></defs>
    <g id="ico-site" stroke="none" stroke-width="1" fill="none" fill-rule="evenodd" transform="translate(-58.000000, -4376.000000)">
        <g id="Lunes-truth" transform="translate(-200.000000, 4340.000000)">
            <g id="ic_Lunes-market" transform="translate(224.000000, 0.000000)">
                <g id="Group-3" transform="translate(34.000000, 36.000000)">
                    <path d="M8.64395604,31.5586207 L9.04835165,31.862069" id="Shape"></path>
                    <path d="M6.77362637,30.091954 L8.64395604,31.5586207" id="Shape"></path>
                    <path d="M0,43.0896552 C0,40.0045977 0,36.9195402 0,33.8344828 C0,33.8344828 0,33.783908 0,33.783908 C0.0505494505,33.5310345 0.151648352,33.3287356 0.303296703,33.1264368 C0.454945055,32.9747126 0.606593407,32.9241379 0.758241758,32.8735632 C3.28571429,32.8735632 5.81318681,32.8735632 8.29010989,32.8735632 C8.44175824,32.9241379 8.59340659,32.9747126 8.69450549,33.0758621 C8.94725275,33.3287356 9.04835165,33.6321839 9.04835165,33.9862069 C9.04835165,36.5149425 9.04835165,39.0436782 9.04835165,41.5724138 C9.04835165,42.0275862 9.04835165,42.4321839 9.04835165,42.8873563 C9.04835165,43.2413793 8.94725275,43.5448276 8.69450549,43.7471264 C8.59340659,43.9494253 8.39120879,44 8.18901099,44 C5.81318681,44 3.43736264,44 1.06153846,44 C1.01098901,44 0.96043956,44 0.90989011,44 C0.606593407,44 0.404395604,43.8482759 0.202197802,43.5954023 C0.101098901,43.4436782 0.0505494505,43.2413793 0,43.0896552 Z M8.54285714,38.4367816 C8.54285714,36.9701149 8.54285714,35.4528736 8.54285714,33.9862069 C8.54285714,33.6827586 8.44175824,33.5816092 8.18901099,33.5816092 C5.76263736,33.5816092 3.33626374,33.5816092 0.96043956,33.5816092 C0.707692308,33.5816092 0.606593407,33.6827586 0.606593407,33.9862069 C0.606593407,36.9701149 0.606593407,39.9034483 0.606593407,42.8873563 C0.606593407,43.1908046 0.707692308,43.291954 0.96043956,43.291954 C3.38681319,43.291954 5.81318681,43.291954 8.18901099,43.291954 C8.44175824,43.291954 8.54285714,43.1908046 8.54285714,42.8873563 C8.54285714,41.4206897 8.54285714,39.9034483 8.54285714,38.4367816 Z" id="Shape" fill="#FFFFFF" fill-rule="nonzero"></path>
                    <path d="M7.38021978,35.2 C7.38021978,35.4528736 7.38021978,35.6551724 7.38021978,35.8574713 C5.50989011,35.8574713 3.58901099,35.8574713 1.71868132,35.8574713 C1.71868132,35.6551724 1.71868132,35.4022989 1.71868132,35.2 C3.63956044,35.2 5.50989011,35.2 7.38021978,35.2 Z" id="Shape" fill="#FFFFFF" fill-rule="nonzero"></path>
                    <path d="M5.30769231,38.2850575 C5.30769231,38.4873563 5.30769231,38.6896552 5.30769231,38.891954 C5.30769231,38.891954 5.25714286,38.9425287 5.25714286,38.9425287 C5.25714286,38.9425287 5.20659341,38.9425287 5.20659341,38.9425287 C4.09450549,38.9425287 2.93186813,38.9425287 1.81978022,38.9425287 C1.76923077,38.9425287 1.76923077,38.9425287 1.71868132,38.9425287 C1.71868132,38.6896552 1.71868132,38.4873563 1.71868132,38.2344828 C2.93186813,38.2850575 4.09450549,38.2850575 5.30769231,38.2850575 Z" id="Shape" fill="#FFFFFF" fill-rule="nonzero"></path>
                    <path d="M8.03736264,30.6988506 L9.04835165,29.1310345 C11.5252747,30.1425287 14.356044,29.8896552 16.6307692,28.4229885 L20.9274725,33.9862069 C19.9164835,35.6551724 20.6747253,37.9310345 22.6967033,38.537931 C23.4549451,38.7402299 24.2637363,38.6896552 24.9714286,38.2850575 C26.3362637,37.5264368 26.8417582,35.9586207 26.3868132,34.5931034 L26.4373626,34.5931034 L36.1934066,29.383908 C36.243956,29.3333333 36.2945055,29.3333333 36.2945055,29.2827586 C38.5692308,31.7103448 42.5626374,31.5586207 44.5846154,28.6758621 C45.3934066,27.5632184 45.6967033,26.045977 45.3934066,24.6298851 C44.8879121,22.354023 43.0681319,20.7862069 40.9956044,20.4827586 L40.9956044,12.2390805 C40.5406593,12.2390805 39.9846154,12.2390805 39.4791209,12.2390805 L39.4791209,20.4827586 C39.0747253,20.5333333 38.6197802,20.6344828 38.2153846,20.8367816 C38.2153846,20.7862069 38.2153846,20.7862069 38.1648352,20.7356322 L33.6153846,14.0091954 C33.6153846,14.0091954 33.5648352,14.0091954 33.5648352,13.9586207 C34.7274725,12.7448276 34.7274725,10.8229885 33.5142857,9.65977011 C32.3010989,8.49655172 30.3802198,8.49655172 29.2175824,9.71034483 C29.0659341,9.86206897 28.9648352,10.0137931 28.8637363,10.1655172 C28.8131868,10.1149425 28.8131868,10.1149425 28.7626374,10.0643678 L12.1318681,3.9954023 L12.1318681,3.84367816 C12.1318681,2.37701149 11.1714286,1.06206897 9.70549451,0.75862069 C7.73406593,0.354022989 6.06593407,1.87126437 6.06593407,3.74252874 C6.06593407,5.41149425 7.43076923,6.77701149 9.0989011,6.77701149 L10.6153846,13.2505747 C6.06593407,14.1103448 3.08351648,18.4597701 3.94285714,23.0114943 C4.34725275,25.2873563 5.71208791,27.2597701 7.63296703,28.4735632 L6.82417582,29.737931 L8.03736264,30.6988506 Z M29.9252747,11.3793103 C30.1274725,10.7724138 30.7846154,10.3678161 31.4417582,10.3678161 C31.9472527,10.3678161 32.4021978,10.6206897 32.6549451,11.0758621 C33.2615385,12.2390805 32.4527473,13.4022989 31.3406593,13.4022989 C30.3802198,13.4022989 29.5714286,12.4413793 29.9252747,11.3793103 Z M9.0989011,5.25977011 C8.23956044,5.25977011 7.58241758,4.60229885 7.58241758,3.74252874 C7.58241758,2.88275862 8.23956044,2.22528736 9.0989011,2.22528736 C9.95824176,2.22528736 10.6153846,2.88275862 10.6153846,3.74252874 C10.6153846,4.60229885 9.95824176,5.25977011 9.0989011,5.25977011 Z M10.4131868,6.52413793 C10.9186813,6.27126437 11.3736264,5.91724138 11.6769231,5.46206897 L28.3076923,11.5816092 L28.4087912,11.5816092 L28.4087912,11.8850575 C28.4087912,12.0367816 28.4087912,12.2390805 28.4593407,12.3908046 L19.4615385,17.4482759 C17.9956044,14.8183908 15.2153846,13.1494253 12.1824176,13.1494253 L10.6659341,6.47356322 L10.4131868,6.52413793 Z M13.2945055,28.1701149 C8.64395604,28.9287356 4.65054945,24.9333333 5.40879121,20.2804598 C5.86373626,17.4482759 8.13846154,15.1724138 10.9692308,14.7172414 C15.6197802,13.9586207 19.6131868,17.954023 18.8549451,22.6068966 C18.4,25.4390805 16.1252747,27.7149425 13.2945055,28.1701149 Z M23.5054945,37.1218391 C22.6461538,37.1218391 21.989011,36.4643678 21.989011,35.6045977 C21.989011,34.7448276 22.6461538,34.0873563 23.5054945,34.0873563 C24.3648352,34.0873563 25.021978,34.7448276 25.021978,35.6045977 C25.021978,36.4643678 24.3648352,37.1218391 23.5054945,37.1218391 Z M25.7296703,33.2781609 C25.6791209,33.3287356 25.6285714,33.3287356 25.578022,33.3793103 C24.6175824,32.4689655 23.1516484,32.2666667 21.989011,32.9747126 L17.7934066,27.5632184 C18.956044,26.4505747 19.8153846,25.0344828 20.2197802,23.4666667 L34.8791209,25.7931034 C34.8791209,26.6022989 35.0813187,27.3609195 35.4351648,28.0689655 L25.7296703,33.2781609 Z M35.0813187,24.2758621 L20.4725275,21.9494253 L20.4725275,21.4436782 C20.4725275,20.5333333 20.3208791,19.6229885 20.0175824,18.7632184 L28.9648352,13.7057471 C29.7230769,14.7172414 31.0879121,15.1218391 32.3010989,14.6666667 C32.3010989,14.7172414 32.3516484,14.7678161 32.3516484,14.7678161 L36.9010989,21.5448276 C36.0417582,22.2528736 35.3846154,23.2137931 35.0813187,24.2758621 Z M43.9274725,26.3494253 C43.6747253,27.9678161 42.3604396,29.2321839 40.7934066,29.4850575 C38.2153846,29.8896552 36.0417582,27.7149425 36.4461538,25.1356322 C36.6989011,23.5172414 38.0131868,22.2528736 39.5802198,22 C42.1582418,21.5954023 44.3318681,23.7701149 43.9274725,26.3494253 Z" id="Shape" fill="#FFFFFF" fill-rule="nonzero"></path>
                    <path d="M16.6307692,19.9770115 C15.3164835,18.7126437 13.8,18.0551724 11.9802198,18.0551724 C10.210989,18.0551724 8.64395604,18.7126437 7.38021978,19.9770115 C7.17802198,19.7747126 6.97582418,19.5724138 6.82417582,19.4206897 C9.45274725,16.6390805 14.2549451,16.4367816 17.1868132,19.4206897 C17.0351648,19.5724138 16.832967,19.7747126 16.6307692,19.9770115 Z" id="Shape" fill="#FFFFFF" fill-rule="nonzero"></path>
                    <path d="M15.7714286,20.8367816 C15.5692308,21.0390805 15.367033,21.1908046 15.2153846,21.3931034 C14.356044,20.5333333 13.2945055,20.0781609 12.0307692,20.0781609 C10.767033,20.0781609 9.70549451,20.5333333 8.84615385,21.4436782 C8.64395604,21.2413793 8.49230769,21.0390805 8.29010989,20.8873563 C10.1604396,18.8137931 13.6989011,18.662069 15.7714286,20.8367816 Z" id="Shape" fill="#FFFFFF" fill-rule="nonzero"></path>
                    <path d="M14.356044,22.2528736 C14.1538462,22.4551724 13.9516484,22.6068966 13.8,22.8091954 C12.6373626,21.7977011 11.4241758,21.7977011 10.2615385,22.8091954 C10.0593407,22.6068966 9.90769231,22.4551724 9.70549451,22.2528736 C10.767033,21.0390805 12.9912088,20.8367816 14.356044,22.2528736 Z" id="Shape" fill="#FFFFFF" fill-rule="nonzero"></path>
                    <path d="M44.8373626,0.354022989 C44.9384615,0.404597701 45.0901099,0.455172414 45.1912088,0.556321839 C45.2923077,0.657471264 45.3428571,0.809195402 45.3428571,0.910344828 C45.3428571,0.96091954 45.3428571,0.96091954 45.3428571,1.01149425 C45.3428571,3.08505747 45.3428571,5.2091954 45.3428571,7.28275862 C45.3428571,7.48505747 45.2923077,7.68735632 45.1406593,7.78850575 C45.0395604,7.88965517 44.9384615,7.88965517 44.8373626,7.94022989 C44.7868132,7.94022989 44.7868132,7.94022989 44.7362637,7.94022989 C41.6527473,7.94022989 38.5186813,7.94022989 35.4351648,7.94022989 C35.232967,7.94022989 35.0307692,7.83908046 34.9296703,7.68735632 C34.8791209,7.5862069 34.8285714,7.53563218 34.8285714,7.43448276 C34.8285714,5.25977011 34.8285714,3.03448276 34.8285714,0.809195402 C34.8791209,0.708045977 34.9296703,0.657471264 34.9296703,0.556321839 C34.9802198,0.455172414 35.1318681,0.354022989 35.2835165,0.303448276 C38.4175824,0.354022989 41.6021978,0.354022989 44.8373626,0.354022989 Z M35.3846154,1.01149425 C35.3846154,3.08505747 35.3846154,5.2091954 35.3846154,7.28275862 C38.4681319,7.28275862 41.5516484,7.28275862 44.6351648,7.28275862 C44.6351648,5.2091954 44.6351648,3.08505747 44.6351648,1.01149425 C41.5516484,1.01149425 38.4681319,1.01149425 35.3846154,1.01149425 Z" id="Shape" stroke="#FFFFFF" stroke-width="0.5" fill="#FFFFFF" fill-rule="nonzero"></path>
                    <path d="M42.9164835,10.216092 L36.9516484,10.216092" id="Shape" stroke="#FFFFFF"></path>
                    <path d="M39.0241758,8.14252874 C39.6813187,8.14252874 40.3384615,8.14252874 40.9956044,8.14252874 C40.9956044,8.19310345 40.9956044,8.19310345 40.9956044,8.24367816 C40.9956044,8.54712644 40.9956044,8.85057471 40.9956044,9.15402299 C40.9956044,9.50804598 41.2989011,9.76091954 41.6527473,9.76091954 C41.8549451,9.76091954 42.1076923,9.76091954 42.3098901,9.76091954 C42.5626374,9.76091954 42.7142857,10.0137931 42.6131868,10.2666667 C42.5626374,10.3678161 42.4615385,10.4183908 42.3604396,10.4183908 C42.3604396,10.4183908 42.3098901,10.4183908 42.2593407,10.4183908 C40.7428571,10.4183908 39.2263736,10.4183908 37.7098901,10.4183908 C37.5582418,10.4183908 37.4571429,10.3678161 37.356044,10.216092 C37.2549451,10.0137931 37.4065934,9.76091954 37.6593407,9.76091954 C37.8615385,9.76091954 38.0637363,9.76091954 38.2659341,9.76091954 C38.7208791,9.76091954 38.9736264,9.50804598 38.9736264,9.05287356 C38.9736264,8.8 38.9736264,8.49655172 38.9736264,8.24367816 C39.0241758,8.19310345 39.0241758,8.19310345 39.0241758,8.14252874 Z" id="Shape" fill="#FFFFFF" fill-rule="nonzero"></path>
                    <ellipse id="Oval" fill="#FFFFFF" fill-rule="nonzero" cx="12.1318681" cy="24.2252874" rx="1.06153846" ry="1.06206897"></ellipse>
                    <path d="M8.13846154,30.5471264 L8.54285714,30.8505747" id="Shape"></path>
                    <path d="M6.26813187,29.0804598 L8.13846154,30.5471264" id="Shape"></path>
                    <path d="M40.5912088,12.3908046 L40.9956044,12.3908046" id="Shape"></path>
                    <path d="M40.389011,12.3908046 L40.5912088,12.3908046" id="Shape"></path>
                    <path d="M39.4791209,12.3908046 L40.389011,12.3908046" id="Shape"></path>
                    <path d="M39.0747253,12.3908046 L39.4791209,12.3908046" id="Shape"></path>
                    <path d="M5.30769231,39.8022989 C5.30769231,40.0045977 5.30769231,40.2068966 5.30769231,40.4091954 C5.30769231,40.4091954 5.25714286,40.4597701 5.25714286,40.4597701 C5.25714286,40.4597701 5.20659341,40.4597701 5.20659341,40.4597701 C4.09450549,40.4597701 2.93186813,40.4597701 1.81978022,40.4597701 C1.76923077,40.4597701 1.76923077,40.4597701 1.71868132,40.4597701 C1.71868132,40.2068966 1.71868132,40.0045977 1.71868132,39.7517241 C2.93186813,39.8022989 4.09450549,39.8022989 5.30769231,39.8022989 Z" id="Shape" fill="#FFFFFF" fill-rule="nonzero"></path>
                    <path d="M5.30769231,36.7678161 C5.30769231,36.9701149 5.30769231,37.1724138 5.30769231,37.3747126 C5.30769231,37.3747126 5.25714286,37.4252874 5.25714286,37.4252874 C5.25714286,37.4252874 5.20659341,37.4252874 5.20659341,37.4252874 C4.09450549,37.4252874 2.93186813,37.4252874 1.81978022,37.4252874 C1.76923077,37.4252874 1.76923077,37.4252874 1.71868132,37.4252874 C1.71868132,37.1724138 1.71868132,36.9701149 1.71868132,36.7172414 C2.93186813,36.7678161 4.09450549,36.7678161 5.30769231,36.7678161 Z" id="Shape" fill="#FFFFFF" fill-rule="nonzero"></path>
                </g>
            </g>
        </g>
    </g>
</svg>