<?xml version="1.0" encoding="UTF-8"?>
<svg width="22px" height="22px" viewBox="0 0 22 22" version="1.1" xmlns="http://www.w3.org/2000/svg" xmlns:xlink="http://www.w3.org/1999/xlink">
    <!-- Generator: Sketch 48.2 (47327) - http://www.bohemiancoding.com/sketch -->
    <title>38-instagram</title>
    <desc>Created with Sketch.</desc>
    <defs>
        <radialGradient cx="50%" cy="0%" fx="50%" fy="0%" r="100%" gradientTransform="translate(0.500000,0.000000),scale(0.999980,1.000000),rotate(90.000000),translate(-0.500000,-0.000000)" id="radialGradient-1">
            <stop stop-color="#9E87D1" offset="0%"></stop>
            <stop stop-color="#654FA4" offset="100%"></stop>
        </radialGradient>
    </defs>
    <g id="ico-site" stroke="none" stroke-width="1" fill="none" fill-rule="evenodd" transform="translate(-260.000000, -14015.000000)">
        <g id="38-instagram" transform="translate(260.000000, 14015.000000)" fill="url(#radialGradient-1)">
            <path d="M17.4334902,0.358470588 L4.31372549,0.358470588 C2.03478431,0.358470588 0.180745098,2.21207843 0.180745098,4.49101961 L0.180745098,8.8565098 L0.180745098,17.6112157 C0.180745098,19.8901569 2.03478431,21.7437647 4.31372549,21.7437647 L17.4339216,21.7437647 C19.7128627,21.7437647 21.5664706,19.8901569 21.5664706,17.6112157 L21.5664706,8.85607843 L21.5664706,4.49058824 C21.5660392,2.21164706 19.7124314,0.358470588 17.4334902,0.358470588 L17.4334902,0.358470588 Z M18.618902,2.82290196 L19.0916863,2.82117647 L19.0916863,3.29180392 L19.0916863,6.446 L15.4789412,6.45764706 L15.4664314,2.8332549 L18.618902,2.82290196 L18.618902,2.82290196 Z M7.82121569,8.85607843 C8.50623529,7.90835294 9.61745098,7.2867451 10.8736078,7.2867451 C12.1297647,7.2867451 13.2409804,7.90835294 13.9251373,8.85607843 C14.3707451,9.47466667 14.6377647,10.2312941 14.6377647,11.050902 C14.6377647,13.1262353 12.9476471,14.8146275 10.8731765,14.8146275 C8.79741176,14.8146275 7.10901961,13.1262353 7.10901961,11.050902 C7.10945098,10.2312941 7.37560784,9.47466667 7.82121569,8.85607843 L7.82121569,8.85607843 Z M19.4825098,17.6107843 C19.4825098,18.7414118 18.5632549,19.6598039 17.4334902,19.6598039 L4.31372549,19.6598039 C3.18352941,19.6598039 2.26427451,18.7414118 2.26427451,17.6107843 L2.26427451,8.85607843 L5.45643137,8.85607843 C5.18078431,9.53419608 5.02592157,10.2748627 5.02592157,11.050902 C5.02592157,14.274549 7.64866667,16.8990196 10.8736078,16.8990196 C14.0981176,16.8990196 16.7208627,14.274549 16.7208627,11.050902 C16.7208627,10.2748627 16.5651373,9.53419608 16.2894902,8.85607843 L19.4825098,8.85607843 L19.4825098,17.6107843 L19.4825098,17.6107843 Z" id="Shape"></path>
        </g>
    </g>
</svg>