<?xml version="1.0" encoding="UTF-8"?>
<svg width="37px" height="59px" viewBox="0 0 37 59" version="1.1" xmlns="http://www.w3.org/2000/svg" xmlns:xlink="http://www.w3.org/1999/xlink">
    <!-- Generator: Sketch 48.2 (47327) - http://www.bohemiancoding.com/sketch -->
    <title>tokens</title>
    <desc>Created with Sketch.</desc>
    <defs></defs>
    <g id="ico-site" stroke="none" stroke-width="1" fill="none" fill-rule="evenodd" transform="translate(-63.000000, -5374.000000)">
        <g id="Starting-Point" transform="translate(1.000000, 5348.000000)" fill="#FFFFFF" fill-rule="nonzero">
            <g id="ic_Lunes-market" transform="translate(23.000000, 0.000000)">
                <g id="tokens" transform="translate(39.000000, 26.000000)">
                    <path d="M30.792929,31.8422184 C28.7820594,31.8422184 26.3690159,31.36384 23.9559725,30.486813 C18.0037985,28.2543805 14.3037985,24.1084346 15.5103203,21.0787049 C16.0733638,19.56384 17.842929,18.6070833 20.3364072,18.3678941 C22.6690159,18.2084346 25.4037985,18.686813 28.1385812,19.7232995 C30.8733638,20.759786 33.2059725,22.2746508 34.8146681,23.9489751 C36.5842333,25.7827589 37.1472768,27.6165427 36.5842333,29.1314076 C35.9407551,30.8854616 33.6885812,31.8422184 30.792929,31.8422184 Z M21.3820594,19.8827589 C21.0603203,19.8827589 20.8190159,19.8827589 20.4972768,19.8827589 C18.6472768,20.0422184 17.3603203,20.6003265 17.0385812,21.5570833 C16.3146681,23.390867 19.2103203,26.8989751 24.5994507,28.8922184 C29.9081464,30.9651914 34.4124942,30.3273535 35.1364072,28.4935697 C35.4581464,27.536813 34.9755377,26.2611373 33.6885812,24.9854616 C32.2407551,23.4705968 30.0690159,22.1151914 27.5755377,21.1584346 C25.4037985,20.3611373 23.2320594,19.8827589 21.3820594,19.8827589 Z" id="Shape"></path>
                    <path d="M29.1580189,35.5594595 C27.1471493,35.5594595 24.7341058,35.0810811 22.3210624,34.2040541 C16.4493232,31.9716216 12.7493232,27.8256757 13.8754102,24.7959459 L15.4841058,20.7297297 L17.0123667,21.2878378 L15.4036711,25.3540541 C14.679758,27.1878378 17.5754102,30.6959459 22.8841058,32.6891892 C28.1928015,34.6824324 32.7775841,34.1243243 33.4210624,32.2905405 L35.029758,28.2243243 L36.5580189,28.7824324 L34.9493232,32.8486486 C34.305845,34.6027027 32.0536711,35.5594595 29.1580189,35.5594595 Z" id="Shape"></path>
                    <path d="M3.76195573,20.5378418 C3.19891225,20.5378418 2.63586877,20.3783823 2.15326008,20.1391931 C-0.82282688,18.6243283 -0.661957315,13.1229769 2.31412964,7.54189585 C3.68152095,4.9905445 5.45108616,2.83784179 7.38152095,1.48243639 C9.39239051,-0.0324284758 11.3228253,-0.351347395 12.8510862,0.366220173 C15.7467383,1.88108504 15.6663036,7.46216612 12.6097818,12.9635175 C11.2423905,15.5148688 9.47282529,17.6675715 7.54239051,19.0229769 C6.17499921,20.0594634 4.88804269,20.5378418 3.76195573,20.5378418 Z M11.1619557,1.64189585 C10.3576079,1.64189585 9.39239051,2.0405445 8.34673834,2.83784179 C6.6576079,4.03378774 5.04891225,6.02703098 3.76195573,8.33919315 C1.02717312,13.3621661 1.1076079,17.827031 2.87717312,18.7837877 C3.76195573,19.2621661 5.12934703,18.8635175 6.57717312,17.827031 C8.26630355,16.631085 9.87499921,14.6378418 11.1619557,12.3256796 C13.8967383,7.30270666 13.8163036,2.83784179 12.0467383,1.88108504 C11.805434,1.64189585 11.4836949,1.64189585 11.1619557,1.64189585 Z" id="Shape"></path>
                    <path d="M7.8826087,23.0418919 C7.31956522,23.0418919 6.75652174,22.8824324 6.27391304,22.6432432 L2.41304348,20.5702703 L3.13695652,19.1351351 L6.99782609,21.2081081 C7.48043478,21.4472973 8.04347826,21.4472973 8.7673913,21.2878378 C10.9391304,20.65 13.5130435,18.0986486 15.2826087,14.75 C16.5695652,12.4378378 17.2934783,9.96621622 17.373913,7.89324324 C17.4543478,6.05945946 16.9717391,4.78378378 16.0869565,4.30540541 L12.3869565,2.23243243 L13.1108696,0.797297297 L16.9717391,2.87027027 C18.4195652,3.66756757 19.223913,5.42162162 19.0630435,7.97297297 C18.9826087,10.2851351 18.0978261,12.9162162 16.7304348,15.4675676 C14.7195652,19.2148649 11.823913,22.0054054 9.25,22.8027027 C8.7673913,22.9621622 8.36521739,23.0418919 7.8826087,23.0418919 Z" id="Shape"></path>
                    <path d="M9.44809915,54.7407133 C6.39157741,54.7407133 4.05896871,53.7839566 3.41549045,51.9501728 C2.85244697,50.4353079 3.49592523,48.5217944 5.26549045,46.7677403 C6.8741861,45.093416 9.28722958,43.6582809 12.0220122,42.7015241 C17.9741861,40.5488214 23.5241861,41.266389 24.6502731,44.2961187 C25.2133165,45.8109836 24.5698383,47.7244971 22.8002731,49.4785512 C21.1915774,51.1528755 18.7785339,52.5880106 16.0437513,53.5447674 C13.7111426,54.3420647 11.4589687,54.7407133 9.44809915,54.7407133 Z M12.5850557,44.1366593 C10.0915774,45.0136863 7.83940349,46.3690917 6.39157741,47.8042268 C5.10462089,49.0799025 4.54157741,50.3555782 4.86331654,51.3123349 C5.5067948,53.1461187 10.0111426,53.8636863 15.4002731,51.9501728 C17.8937513,51.0731458 20.1459252,49.7177403 21.5937513,48.2826052 C22.8807078,47.0069295 23.4437513,45.7312539 23.1220122,44.7744971 C22.4785339,42.9407133 17.9741861,42.2231458 12.5850557,44.1366593 Z" id="Shape"></path>
                    <path d="M10.6978261,58.5216216 C10.2956522,58.5216216 9.89347826,58.5216216 9.49130435,58.4418919 C6.99782609,58.2027027 5.30869565,57.2459459 4.74565217,55.6513514 L3.2173913,51.5851351 L4.74565217,51.027027 L6.27391304,55.0932432 C6.59565217,56.05 7.8826087,56.6878378 9.7326087,56.8472973 C11.823913,57.0067568 14.3173913,56.6878378 16.8913043,55.7310811 C20.5108696,54.4554054 23.4065217,52.3027027 24.3717391,50.2297297 C24.6934783,49.5918919 24.773913,48.9540541 24.5326087,48.4756757 L23.0043478,44.4094595 L24.5326087,43.8513514 L25.9,47.9972973 C26.2217391,48.8743243 26.1413043,49.9108108 25.6586957,50.9472973 C24.5326087,53.3391892 21.3152174,55.8108108 17.2934783,57.2459459 C15.0413043,58.122973 12.7086957,58.5216216 10.6978261,58.5216216 Z" id="Shape"></path>
                    <path d="M32.173913,20.7297297 C31.6913043,20.7297297 31.3695652,20.4108108 31.3695652,19.9324324 L31.3695652,3.98648649 C31.3695652,3.50810811 31.6913043,3.18918919 32.173913,3.18918919 C32.6565217,3.18918919 32.9782609,3.50810811 32.9782609,3.98648649 L32.9782609,19.9324324 C32.9782609,20.4108108 32.6565217,20.7297297 32.173913,20.7297297 Z" id="Shape"></path>
                    <path d="M28.9565217,22.0054054 C28.473913,22.0054054 28.1521739,21.6864865 28.1521739,21.2081081 L28.1521739,11.9594595 C28.1521739,11.4810811 28.473913,11.1621622 28.9565217,11.1621622 C29.4391304,11.1621622 29.7608696,11.4810811 29.7608696,11.9594595 L29.7608696,21.2081081 C29.7608696,21.6864865 29.4391304,22.0054054 28.9565217,22.0054054 Z" id="Shape"></path>
                    <path d="M8.84782609,42.8945946 C8.36521739,42.8945946 8.04347826,42.5756757 8.04347826,42.0972973 L8.04347826,31.8918919 C8.04347826,31.4135135 8.36521739,31.0945946 8.84782609,31.0945946 C9.33043478,31.0945946 9.65217391,31.4135135 9.65217391,31.8918919 L9.65217391,42.0972973 C9.65217391,42.4959459 9.33043478,42.8945946 8.84782609,42.8945946 Z" id="Shape"></path>
                    <path d="M12.0652174,43.6918919 C11.5826087,43.6918919 11.2608696,43.372973 11.2608696,42.8945946 L11.2608696,36.6756757 C11.2608696,36.1972973 11.5826087,35.8783784 12.0652174,35.8783784 C12.5478261,35.8783784 12.8695652,36.1972973 12.8695652,36.6756757 L12.8695652,42.8945946 C12.8695652,43.372973 12.4673913,43.6918919 12.0652174,43.6918919 Z" id="Shape"></path>
                    <path d="M11.477038,20.7048142 C11.3161685,20.7048142 11.1552989,20.6250845 11.0748641,20.5453547 L7.61616848,18.2331926 C7.21399457,17.9940034 7.13355978,17.515625 7.37486413,17.1169764 C7.61616848,16.7183277 8.09877717,16.638598 8.50095109,16.8777872 L11.9596467,19.1899493 C12.3618207,19.4291385 12.4422554,19.9075169 12.2009511,20.3061655 C12.0400815,20.5453547 11.7987772,20.7048142 11.477038,20.7048142 Z" id="Shape"></path>
                    <path d="M14.2118207,17.1169764 C14.0509511,17.1169764 13.8900815,17.0372466 13.8096467,16.9575169 L10.8335598,15.0440034 C10.4313859,14.8048142 10.3509511,14.3264358 10.5922554,13.9277872 C10.8335598,13.5291385 11.3161685,13.4494088 11.7183424,13.688598 L14.6944293,15.6021115 C15.0966033,15.8413007 15.177038,16.3196791 14.9357337,16.7183277 C14.7748641,16.9575169 14.5335598,17.1169764 14.2118207,17.1169764 Z" id="Shape"></path>
                    <path d="M29.0069111,36.0080558 C28.9264763,36.0080558 28.8460415,36.0080558 28.685172,35.928326 C28.282998,35.7688666 28.0416937,35.2904882 28.2025633,34.8918396 L29.7308241,30.8256233 C29.8916937,30.4269747 30.3743024,30.1877855 30.7764763,30.347245 C31.1786502,30.5067044 31.4199546,30.9850828 31.259085,31.3837314 L29.7308241,35.4499477 C29.6503894,35.8485963 29.3286502,36.0080558 29.0069111,36.0080558 Z" id="Shape"></path>
                    <path d="M24.985172,34.8121098 C24.9047372,34.8121098 24.8243024,34.8121098 24.6634328,34.7323801 C24.2612589,34.5729206 24.0199546,34.0945423 24.1808241,33.6958936 L25.6286502,30.028326 C25.7895198,29.6296774 26.2721285,29.3904882 26.6743024,29.5499477 C27.0764763,29.7094071 27.3177807,30.1877855 27.1569111,30.5864341 L25.709085,34.2540017 C25.6286502,34.6526504 25.3069111,34.8121098 24.985172,34.8121098 Z" id="Shape"></path>
                    <path d="M22.1007762,53.9584027 C21.7790371,53.9584027 21.4572979,53.7989432 21.3768632,53.4800243 L20.1703414,50.5300243 C20.0094719,50.1313757 20.1703414,49.6529973 20.5725153,49.4935378 C20.9746892,49.3340784 21.4572979,49.4935378 21.6181675,49.8921865 L22.8246892,52.8421865 C22.9855588,53.2408351 22.8246892,53.7192135 22.4225153,53.878673 C22.3420805,53.9584027 22.181211,53.9584027 22.1007762,53.9584027 Z" id="Shape"></path>
                    <path d="M18.2399066,57.5462405 C17.9181675,57.5462405 17.5964284,57.3867811 17.5159936,57.0678622 L16.1486023,53.7192135 C15.9877327,53.3205649 16.1486023,52.8421865 16.5507762,52.682727 C16.9529501,52.5232676 17.4355588,52.682727 17.5964284,53.0813757 L18.9638197,56.4300243 C19.1246892,56.828673 18.9638197,57.3070514 18.5616458,57.4665108 C18.4007762,57.4665108 18.3203414,57.5462405 18.2399066,57.5462405 Z" id="Shape"></path>
                </g>
            </g>
        </g>
    </g>
</svg>