<?xml version="1.0" encoding="UTF-8"?>
<svg width="29px" height="23px" viewBox="0 0 29 23" version="1.1" xmlns="http://www.w3.org/2000/svg" xmlns:xlink="http://www.w3.org/1999/xlink">
    <!-- Generator: Sketch 48.2 (47327) - http://www.bohemiancoding.com/sketch -->
    <title>Shape 5</title>
    <desc>Created with Sketch.</desc>
    <defs>
        <radialGradient cx="50%" cy="0%" fx="50%" fy="0%" r="100%" gradientTransform="translate(0.500000,0.000000),scale(0.793103,1.000000),rotate(90.000000),translate(-0.500000,-0.000000)" id="radialGradient-1">
            <stop stop-color="#9E87D1" offset="0%"></stop>
            <stop stop-color="#654FA4" offset="100%"></stop>
        </radialGradient>
    </defs>
    <g id="ico-site" stroke="none" stroke-width="1" fill="none" fill-rule="evenodd" transform="translate(-324.000000, -14014.000000)">
        <path d="M353,14016.7226 C351.933095,14017.1845 350.786296,14017.4965 349.582947,14017.6369 C350.811236,14016.9183 351.754746,14015.7805 352.198879,14014.4245 C351.04918,14015.09 349.775941,14015.5731 348.420633,14015.8335 C347.335458,14014.705 345.789186,14014 344.077905,14014 C340.792221,14014 338.128149,14016.5996 338.128149,14019.8062 C338.128149,14020.2613 338.180784,14020.7045 338.282139,14021.1295 C333.337373,14020.8873 328.953465,14018.5757 326.019115,14015.0627 C325.506977,14015.9203 325.213499,14016.9176 325.213499,14017.9818 C325.213499,14019.9963 326.263874,14021.7735 327.860316,14022.8147 C326.884906,14022.7845 325.96764,14022.5233 325.165504,14022.0885 C325.164924,14022.1127 325.164924,14022.137 325.164924,14022.1615 C325.164924,14024.9747 327.215794,14027.3214 329.937575,14027.8549 C329.438343,14027.9876 328.91272,14028.0585 328.369988,14028.0585 C327.986465,14028.0585 327.613817,14028.022 327.250449,14027.9544 C328.00778,14030.2611 330.204809,14031.94 332.808416,14031.9867 C330.772191,14033.5441 328.206864,14034.4722 325.419253,14034.4722 C324.939015,14034.4722 324.465448,14034.4448 324,14034.391 C326.633042,14036.0386 329.760531,14037 333.120309,14037 C344.06384,14037 350.04825,14028.1524 350.04825,14020.4794 C350.04825,14020.2276 350.04245,14019.9773 350.030995,14019.7281 C351.193744,14018.9096 352.202359,14017.8869 353,14016.7226 L353,14016.7226 Z" id="Shape-5" fill="url(#radialGradient-1)"></path>
    </g>
</svg>