<?xml version="1.0" encoding="UTF-8"?>
<svg width="26px" height="25px" viewBox="0 0 26 25" version="1.1" xmlns="http://www.w3.org/2000/svg" xmlns:xlink="http://www.w3.org/1999/xlink">
    <!-- Generator: Sketch 48.2 (47327) - http://www.bohemiancoding.com/sketch -->
    <title>download</title>
    <desc>Created with Sketch.</desc>
    <defs>
        <radialGradient cx="50%" cy="0%" fx="50%" fy="0%" r="100%" gradientTransform="translate(0.500000,0.000000),scale(0.961538,1.000000),rotate(90.000000),translate(-0.500000,-0.000000)" id="radialGradient-1">
            <stop stop-color="#9E87D1" offset="0%"></stop>
            <stop stop-color="#654FA4" offset="100%"></stop>
        </radialGradient>
        <radialGradient cx="50%" cy="0%" fx="50%" fy="0%" r="100%" id="radialGradient-2">
            <stop stop-color="#9E87D1" offset="0%"></stop>
            <stop stop-color="#654FA4" offset="100%"></stop>
        </radialGradient>
    </defs>
    <g id="ico-site" stroke="none" stroke-width="1" fill="none" fill-rule="evenodd" transform="translate(-290.000000, -14013.000000)">
        <g id="download" transform="translate(290.000000, 14013.000000)">
            <g id="Group">
                <path d="M13,0 C5.82123932,0 0,5.73773258 0,12.8163564 C0,18.4789583 3.72489567,23.2828635 8.89019342,24.9777602 C9.53989203,25.0963987 9.77841624,24.6995221 9.77841624,24.3612219 C9.77841624,24.0558179 9.76636087,23.0460109 9.76076373,21.9750807 C6.14415116,22.7503696 5.38100285,20.462917 5.38100285,20.462917 C4.78964364,18.9817395 3.93758694,18.5876218 3.93758694,18.5876218 C2.75788236,17.7921707 4.02649533,17.8085127 4.02649533,17.8085127 C5.33192025,17.8989242 6.01929191,19.129454 6.01929191,19.129454 C7.17876068,21.0885814 9.06047559,20.5221302 9.80231172,20.1948661 C9.91899053,19.366731 10.2558952,18.8011287 10.6276744,18.4810806 C7.74019673,18.1572123 4.70461019,17.058055 4.70461019,12.1471842 C4.70461019,10.7479287 5.21244287,9.60462688 6.04426376,8.70709142 C5.90928661,8.38428428 5.4643141,7.08074614 6.17019938,5.31517568 C6.17019938,5.31517568 7.26185666,4.97093295 9.74590978,6.62911326 C10.7828873,6.34514484 11.8949957,6.20273617 12.9997847,6.19764256 C14.1045738,6.20252393 15.2175432,6.34493261 16.2564582,6.62911326 C18.7377128,4.97093295 19.8278632,5.31517568 19.8278632,5.31517568 C20.5354706,7.08053391 20.0904981,8.38407204 19.955521,8.70709142 C20.7890641,9.60462688 21.2934523,10.7479287 21.2934523,12.1471842 C21.2934523,17.0697279 18.2522687,18.1536043 15.3574717,18.4708934 C15.8237564,18.868619 16.2392363,19.6485771 16.2392363,20.8443006 C16.2392363,22.5591473 16.2243823,23.9393017 16.2243823,24.3614341 C16.2243823,24.7024933 16.4583858,25.102129 17.1171259,24.9762746 C22.2798404,23.27968 26,18.4772604 26,12.8165686 C25.9997847,5.73773258 20.1794065,0 13,0 L13,0 Z" id="Shape" fill="url(#radialGradient-1)"></path>
                <path d="M5.01784947,18.6591128 C4.98454961,18.754876 4.86637265,18.7835095 4.75871143,18.7176525 C4.64879684,18.6549769 4.58745499,18.5248535 4.62300823,18.4290904 C4.65555697,18.330782 4.7739843,18.3034211 4.88339814,18.3692782 C4.99331273,18.4319537 5.05590646,18.5633497 5.01784947,18.6591128 L5.01784947,18.6591128 L5.01784947,18.6591128 Z" id="Shape" fill="url(#radialGradient-2)"></path>
                <path d="M5.40524581,19.1374459 C5.33760005,19.1992263 5.20512711,19.1705343 5.11563741,19.0728887 C5.02262449,18.9754746 5.00547817,18.8452034 5.07406345,18.7824974 C5.14382314,18.7207169 5.27206822,18.7496404 5.36484626,18.8470545 C5.45785917,18.9456256 5.47594502,19.0747398 5.40524581,19.1374459 L5.40524581,19.1374459 L5.40524581,19.1374459 Z" id="Shape" fill="url(#radialGradient-2)"></path>
                <path d="M5.80576198,19.5665616 C5.72519363,19.6165132 5.59323575,19.569853 5.5117964,19.4656904 C5.43122805,19.3617214 5.43122805,19.2368424 5.51375617,19.1870844 C5.59519552,19.1371329 5.72519363,19.1822442 5.80772175,19.2852451 C5.88807234,19.3909566 5.88807234,19.5158356 5.80576198,19.5665616 L5.80576198,19.5665616 L5.80576198,19.5665616 Z" id="Shape" fill="url(#radialGradient-2)"></path>
                <path d="M6.67171927,20.3782997 C6.61079622,20.4475589 6.48103564,20.4289633 6.38606193,20.3342774 C6.28887954,20.2420582 6.26182307,20.1107503 6.32274613,20.041491 C6.38458947,19.9722318 6.51508629,19.9915864 6.61061216,20.0853236 C6.70724238,20.1777325 6.73669159,20.3096097 6.67171927,20.3782997 L6.67171927,20.3782997 L6.67171927,20.3782997 Z" id="Shape" fill="url(#radialGradient-2)"></path>
                <path d="M7.95910327,20.7112155 C7.91079862,20.8168336 7.68800577,20.8648418 7.46324129,20.8197364 C7.23847682,20.7735146 7.09191987,20.6498097 7.13726709,20.5432984 C7.18392872,20.4367872 7.40803598,20.3869926 7.63444347,20.4350008 C7.85855074,20.4809994 8.0057649,20.6035878 7.95910327,20.7112155 L7.95910327,20.7112155 L7.95910327,20.7112155 Z" id="Shape" fill="url(#radialGradient-2)"></path>
                <path d="M8.80633385,21.0387635 C8.81182752,21.1548458 8.62439657,21.2511148 8.39236998,21.2532127 C8.15905077,21.2571753 7.97000403,21.1630042 7.96774194,21.0487867 C7.96774194,20.931539 8.15097185,20.8364354 8.38429106,20.8334052 C8.61631765,20.8303749 8.80633385,20.9236137 8.80633385,21.0387635 L8.80633385,21.0387635 L8.80633385,21.0387635 Z" id="Shape" fill="url(#radialGradient-2)"></path>
                <path d="M10.0613893,20.9911642 C10.0892993,21.1020272 9.92735616,21.2160904 9.69596238,21.246492 C9.46846303,21.2759793 9.25783953,21.2071756 9.22895587,21.097227 C9.20072129,20.9833924 9.36558529,20.8693292 9.59276011,20.839842 C9.82447842,20.8114976 10.0318566,20.878244 10.0613893,20.9911642 L10.0613893,20.9911642 L10.0613893,20.9911642 Z" id="Shape" fill="url(#radialGradient-2)"></path>
            </g>
        </g>
    </g>
</svg>