<?xml version="1.0" encoding="UTF-8"?>
<svg width="21px" height="22px" viewBox="0 0 21 22" version="1.1" xmlns="http://www.w3.org/2000/svg" xmlns:xlink="http://www.w3.org/1999/xlink">
    <!-- Generator: Sketch 48.2 (47327) - http://www.bohemiancoding.com/sketch -->
    <title>11-linkedin</title>
    <desc>Created with Sketch.</desc>
    <defs>
        <radialGradient cx="50%" cy="0%" fx="50%" fy="0%" r="100%" gradientTransform="translate(0.500000,0.000000),scale(1.000000,0.967509),rotate(90.000000),translate(-0.500000,-0.000000)" id="radialGradient-1">
            <stop stop-color="#9E87D1" offset="0%"></stop>
            <stop stop-color="#654FA4" offset="100%"></stop>
        </radialGradient>
    </defs>
    <g id="ico-site" stroke="none" stroke-width="1" fill="none" fill-rule="evenodd" transform="translate(-231.000000, -14015.000000)">
        <g id="11-linkedin" transform="translate(231.000000, 14015.000000)">
            <g id="Group">
                <path d="M11.36982,9.96453333 L11.36982,9.93192157 C11.3631,9.94293333 11.35596,9.9539451 11.34882,9.96453333 L11.36982,9.96453333 L11.36982,9.96453333 Z" id="Shape" fill="#4CD566"></path>
                <path d="M19.4313,0.28772549 L1.7409,0.28772549 C0.89418,0.28772549 0.20748,0.976196078 0.20748,1.82470588 L0.20748,20.2067843 C0.20748,21.0548627 0.89418,21.7433333 1.7409,21.7433333 L19.4313,21.7433333 C20.27928,21.7433333 20.96598,21.0544314 20.96598,20.2067843 L20.96598,1.82470588 C20.96598,0.975764706 20.27886,0.28772549 19.4313,0.28772549 L19.4313,0.28772549 Z M6.4995,18.2487843 L3.3642,18.2487843 L3.3642,8.56058824 L6.4995,8.56058824 L6.4995,18.2487843 L6.4995,18.2487843 Z M4.93206,7.23713725 L4.91106,7.23713725 C3.85938,7.23713725 3.17898,6.49301961 3.17898,5.56341176 C3.17898,4.61309804 3.88038,3.88968627 4.95264,3.88968627 C6.02532,3.88968627 6.68514,4.61309804 6.70614,5.56341176 C6.70614,6.49301961 6.0249,7.23713725 4.93206,7.23713725 L4.93206,7.23713725 Z M17.80548,18.2487843 L14.67018,18.2487843 L14.67018,13.064549 C14.67018,11.7626667 14.21658,10.8740392 13.08216,10.8740392 C12.21612,10.8740392 11.70036,11.4732157 11.47314,12.0521176 C11.3904,12.2587451 11.37024,12.5477647 11.37024,12.8376471 L11.37024,18.2483529 L8.23494,18.2483529 C8.23494,18.2483529 8.2761,9.46819608 8.23494,8.56015686 L11.37024,8.56015686 L11.37024,9.9314902 C11.78688,9.2714902 12.53196,8.33152941 14.19642,8.33152941 C16.25904,8.33152941 17.8059,9.71666667 17.8059,12.6927059 L17.8059,18.2487843 L17.80548,18.2487843 Z" id="Shape" fill="url(#radialGradient-1)"></path>
            </g>
        </g>
    </g>
</svg>