<?xml version="1.0" encoding="UTF-8"?>
<svg width="38px" height="37px" viewBox="0 0 38 37" version="1.1" xmlns="http://www.w3.org/2000/svg" xmlns:xlink="http://www.w3.org/1999/xlink">
    <!-- Generator: Sketch 48.2 (47327) - http://www.bohemiancoding.com/sketch -->
    <title>ic_wallet</title>
    <desc>Created with Sketch.</desc>
    <defs></defs>
    <g id="ico-site" stroke="none" stroke-width="1" fill="none" fill-rule="evenodd" transform="translate(-62.000000, -1237.000000)">
        <g id="Carteira-lunes" transform="translate(-21.000000, 1198.000000)" fill="#FFFFFF" fill-rule="nonzero">
            <g id="ic_carteira-lunes" transform="translate(45.000000, 0.000000)">
                <g id="ic_wallet" transform="translate(38.000000, 39.000000)">
                    <circle id="Oval" cx="27.1634615" cy="22.3557692" r="1.20192308"></circle>
                    <path d="M16.131352,0.291621057 C15.7342105,-0.0972070189 15.1111446,-0.0972070189 14.7140031,0.291621057 L10.7742537,4.35641628 L3.35919691,4.35641628 C1.5048783,4.3586902 0.00220621128,5.90748242 0,7.81871393 L0,15.4531009 C0,16.0228787 0.448141741,16.4847748 1.00095259,16.4847748 C1.55376345,16.4847748 2.00190519,16.0228787 2.00190519,15.4531009 L2.00190519,10.9838895 C2.42912246,11.1799109 2.89155961,11.2811422 3.35919691,11.2810116 L29.9565093,11.2810116 C30.7282332,11.2810116 31.3538391,11.9258186 31.3538391,12.7212284 L31.3538391,17.5288288 L26.1488856,17.5288288 C24.7838797,17.5345742 23.4810802,18.1179397 22.5454562,19.1423668 C21.5902694,20.1670323 21.096366,21.5579704 21.1841607,22.9760671 C21.3986782,25.6967849 23.6208157,27.7815348 26.2689999,27.7465273 L31.3538391,27.7465273 L31.3538391,32.5211141 C31.3538391,33.3347568 30.7138927,33.9943445 29.9244788,33.9943445 L19.9830176,33.9943445 C19.4302068,33.9943445 18.982065,34.4562406 18.982065,35.0260184 C18.982065,35.5957962 19.4302068,36.0576923 19.9830176,36.0576923 L29.9124673,36.0576923 C31.8065883,36.0554183 33.3415265,34.4733696 33.3437328,32.5211141 L33.3437328,27.7465273 L34.7450665,27.7465273 C36.0001387,27.7442558 37.0170269,26.6961572 37.0192308,25.4025641 L37.0192308,19.8727919 C37.0170641,18.5840063 36.0074569,17.5378869 34.7570779,17.5288288 L33.3557443,17.5288288 L33.3557443,12.7212284 C33.3447443,10.7936552 31.826714,9.23640497 29.9565093,9.23417054 L29.856414,9.23417054 L29.856414,7.51333845 C29.8542048,5.76915116 28.4817454,4.35641479 26.7894952,4.35641628 L20.0751052,4.35641628 L16.131352,0.291621057 Z M34.7570779,19.5921766 C34.9074425,19.5921766 35.029337,19.7178124 35.029337,19.8727919 L35.029337,25.4025641 C35.029337,25.5575437 34.9074425,25.6831794 34.7570779,25.6831794 L26.2689999,25.6831794 C24.6802154,25.718492 23.3347453,24.4830101 23.1860659,22.8522662 C23.1317887,22.0115553 23.4178582,21.1852351 23.9762341,20.5698421 C24.53461,19.9544492 25.3153905,19.6049809 26.1328703,19.6045567 L34.7570779,19.5921766 Z M6.0577651,9.23417054 L3.35919691,9.23417054 C2.60958539,9.23417054 2.00190519,8.60783937 2.00190519,7.83522072 C2.00190519,7.06260206 2.60958539,6.43627089 3.35919691,6.43627089 L8.77234854,6.43627089 L6.0577651,9.23417054 Z M26.7894952,6.41976411 C27.3754748,6.41976411 27.850505,6.90937402 27.850505,7.51333845 L27.850505,9.23417054 L24.7875901,9.23417054 L22.0730066,6.43627089 L26.7894952,6.41976411 Z M8.88845904,9.23417054 L15.4226776,2.48289645 L21.9608999,9.23417054 L8.88845904,9.23417054 Z" id="Shape"></path>
                    <path d="M1.04971448,30.4648136 C3.55787534,30.4671284 5.59056387,32.499817 5.59287874,35.0079778 C5.59287874,35.5877191 6.06285192,36.0576923 6.64259321,36.0576923 C7.22233451,36.0576923 7.69230769,35.5877191 7.69230769,35.0079778 C7.68768096,31.3412931 4.71639924,28.3700114 1.04971448,28.3653846 C0.46997318,28.3653846 0,28.8353578 0,29.4150991 C0,29.9948404 0.46997318,30.4648136 1.04971448,30.4648136 Z" id="Shape"></path>
                    <path d="M1.01035901,25.0976411 C5.97253219,25.1020975 9.99405637,29.1236217 9.99851275,34.0857948 C9.99851275,34.6438007 10.4508659,35.0961538 11.0088718,35.0961538 C11.5668776,35.0961538 12.0192308,34.6438007 12.0192308,34.0857948 C12.0125488,28.0085328 7.08762107,23.0836051 1.01035901,23.0769231 C0.452353136,23.0769231 0,23.5292762 0,24.0872821 C0,24.645288 0.452353136,25.0976411 1.01035901,25.0976411 Z" id="Shape"></path>
                    <path d="M0.992842192,21.2753528 C8.3713076,21.2821127 14.351712,27.438078 14.3604695,35.0354005 C14.3604695,35.5999967 14.8049801,36.0576923 15.3533117,36.0576923 C15.9016432,36.0576923 16.3461538,35.5999967 16.3461538,35.0354005 C16.3352098,26.3098194 9.46706418,19.2397807 0.992842192,19.2307692 C0.44451059,19.2307692 0,19.6884649 0,20.253061 C0,20.8176572 0.44451059,21.2753528 0.992842192,21.2753528 Z" id="Shape"></path>
                </g>
            </g>
        </g>
    </g>
</svg>